<?xml version="1.0" encoding="utf-8"?>
<!DOCTYPE svg PUBLIC "-//W3C//DTD SVG 1.0//EN" "http://www.w3.org/TR/2001/REC-SVG-20010904/DTD/svg10.dtd">
<svg version="1.0" xmlns="http://www.w3.org/2000/svg" width="360px" height="361px" viewBox="0 0 360 361" preserveAspectRatio="xMidYMid meet">
   <defs>
      <linearGradient id="lg0" gradientUnits="userSpaceOnUse" x1="45.833332%" y1="28.254848%" x2="45.833332%" y2="73.4072%">
         <stop offset="0%" style="stop-color:rgb(50,40,25);"></stop>
         <stop offset="1%" style="stop-color:rgb(51,42,26);"></stop>
         <stop offset="2%" style="stop-color:rgb(57,48,26);"></stop>
         <stop offset="5%" style="stop-color:rgb(64,54,27);"></stop>
         <stop offset="7%" style="stop-color:rgb(58,48,24);"></stop>
         <stop offset="9%" style="stop-color:rgb(52,46,23);"></stop>
         <stop offset="12%" style="stop-color:rgb(50,45,28);"></stop>
         <stop offset="13%" style="stop-color:rgb(49,43,30);"></stop>
         <stop offset="14%" style="stop-color:rgb(48,43,31);"></stop>
         <stop offset="19%" style="stop-color:rgb(46,40,38);"></stop>
         <stop offset="32%" style="stop-color:rgb(38,32,32);"></stop>
         <stop offset="33%" style="stop-color:rgb(38,31,32);"></stop>
         <stop offset="40%" style="stop-color:rgb(34,25,25);"></stop>
         <stop offset="44%" style="stop-color:rgb(29,22,27);"></stop>
         <stop offset="100%" style="stop-color:rgb(23,12,13);"></stop>
      </linearGradient>
      <linearGradient id="lg1" gradientUnits="userSpaceOnUse" x1="15.0%" y1="82.825485%" x2="73.333336%" y2="49.03047%">
         <stop offset="0%" style="stop-color:rgb(92,181,229);"></stop>
         <stop offset="98%" style="stop-color:rgb(125,199,241);"></stop>
         <stop offset="100%" style="stop-color:rgb(113,194,238);"></stop>
      </linearGradient>
      <linearGradient id="lg2" gradientUnits="userSpaceOnUse" x1="43.055557%" y1="100.0%" x2="88.888885%" y2="20.498615%">
         <stop offset="0%" style="stop-color:rgb(5,79,174);"></stop>
         <stop offset="1%" style="stop-color:rgb(7,87,181);"></stop>
         <stop offset="100%" style="stop-color:rgb(13,151,230);"></stop>
      </linearGradient>
      <linearGradient id="lg3" gradientUnits="userSpaceOnUse" x1="40.833332%" y1="1.6620499%" x2="40.833332%" y2="83.3795%">
         <stop offset="0%" style="stop-color:rgb(145,55,255);"></stop>
         <stop offset="100%" style="stop-color:rgb(103,11,255);"></stop>
      </linearGradient>
   </defs>
 <g fill="#73c4f0">
  <path d="M151.8 357.3 c-3.3 -0.8 -2 -3.3 1.7 -3.3 2.8 0 3.5 0.4 3.5 2 0 2 -1.4 2.3 -5.2 1.3z"/>
  <path d="M204 356 c0 -1.6 0.7 -2 3.5 -2 4 0 4.9 2.4 1.3 3.4 -3.8 1 -4.8 0.7 -4.8 -1.4z"/>
  <path d="M135.8 354.3 c-3.3 -0.8 -2 -3.3 1.7 -3.3 2.8 0 3.5 0.4 3.5 2 0 2 -1.4 2.3 -5.2 1.3z"/>
  <path d="M224 352 c0 -1.6 0.7 -2 3.5 -2 4 0 4.9 2.4 1.3 3.4 -3.8 1 -4.8 0.7 -4.8 -1.4z"/>
  <path fill="url(#lg1)" d="M141 345.7 c0 -3.1 0.2 -3.3 7.2 -5.7 3.9 -1.3 8.6 -3.4 10.4 -4.7 1.8 -1.2 7.4 -4.4 12.4 -7.2 11.2 -6.1 20.7 -14.4 21.5 -18.6 0.9 -4.4 -3.4 -11.8 -7.2 -12.5 -2.3 -0.4 -2.9 -1.1 -3.1 -3.8 -0.2 -1.9 0.1 -4.7 0.7 -6.3 l1 -3 -4.2 2.6 c-2.3 1.5 -6.3 3.8 -8.9 5.3 -4.3 2.4 -6.3 5.2 -3.8 5.2 0.6 0 1 1.5 1 3.4 0 3.1 -0.3 3.4 -4.4 4.6 -3.4 0.9 -6.8 0.9 -15.1 0 -7.8 -0.8 -11 -0.8 -11.5 0 -0.3 0.6 -3 1.3 -5.8 1.7 l-5.2 0.6 0 -3.5 c0 -3.2 0.3 -3.6 3.1 -4.2 1.7 -0.3 4.2 -0.6 5.5 -0.6 1.3 0 2.4 -0.4 2.4 -0.9 0 -0.4 3.5 -2.1 7.8 -3.6 10.8 -3.9 18.4 -7.8 27.7 -14.3 7.9 -5.5 25.4 -22.3 32.9 -31.8 2.2 -2.7 4.4 -5.4 5 -5.9 1.2 -1.2 2.5 -3.4 10.2 -18 6 -11.4 13.3 -32 14.1 -40.1 l0.6 -5.4 -3.2 0 c-2.8 0 -3.1 -0.3 -3.1 -3.1 l0 -3 3 2.1 c1.6 1.1 3.8 3.2 4.8 4.5 l1.9 2.4 0.6 -3.7 c1.3 -8.8 5.8 -35.1 6.9 -39.9 0.9 -4.1 1.5 -5.3 3 -5.3 1.1 0 1.8 0.7 1.8 1.8 0 1 0.9 5.2 2 9.3 9.1 33 10.2 66.1 3.1 94.2 -8.6 33.7 -34.5 71.6 -60.7 88.7 -16.1 10.5 -42.9 22 -51.3 22 -2.8 0 -3.1 -0.3 -3.1 -3.3z m67.8 -81.7 c1.7 -1.6 3.2 -3.4 3.2 -3.9 0 -0.5 0.4 -1.1 0.9 -1.3 3.3 -1.2 7.9 -12.8 5.1 -12.8 -0.5 0 -1 0.6 -1 1.3 0 0.7 -1.3 2.8 -2.8 4.7 -3.9 4.8 -10.3 15 -9.4 15 0.4 0 2.2 -1.4 4 -3z"/>
  <path d="M285 324.1 c0 -2.9 0.3 -3.1 3.6 -3.1 3.9 0 3.8 0.9 -0.6 4 l-3 2.1 0 -3z"/>
  <path d="M302 309.1 c0 -2.9 0.3 -3.1 3.6 -3.1 3.9 0 3.8 0.9 -0.6 4 l-3 2.1 0 -3z"/>
  <path d="M80 305.5 c0 -3.4 0.1 -3.5 4 -3.5 3.9 0 4 0.1 4 3.5 0 3.4 -0.1 3.5 -4 3.5 -3.9 0 -4 -0.1 -4 -3.5z"/>
  <path d="M116 305.5 c0 -3.4 0.1 -3.5 4 -3.5 3.9 0 4 0.1 4 3.5 0 3.4 -0.1 3.5 -4 3.5 -3.9 0 -4 -0.1 -4 -3.5z"/>
  <path d="M39.8 287 l-2.8 -3.5 2.6 -0.3 c3.3 -0.4 3.6 -0.1 3.2 3.9 l-0.3 3.4 -2.7 -3.5z"/>
  <path d="M33.7 279.1 c-5.2 -6.3 -14.2 -23.2 -19.8 -37.3 l-1.9 -4.8 2.5 0 c2 0 2.5 0.5 2.5 2.5 0 1.4 0.5 2.5 1 2.5 0.6 0 1 1.6 1 3.5 0 2.4 0.5 3.5 1.5 3.5 0.8 0 1.5 0.9 1.5 2 0 1.1 0.4 2 0.8 2 1.4 0 5.2 8.9 5.2 12 0 2.3 0.4 3 2 3 1.6 0 2 0.7 2 3 0 2.3 0.4 3 2 3 2.4 0 3.3 1.7 2.8 5.6 l-0.3 2.8 -2.8 -3.3z"/>
  <path d="M7.6 222.3 c-1.9 -7.7 -4.6 -22.9 -4.6 -25.5 0 -1.1 0.8 -1.8 2 -1.8 1.5 0 2 0.7 2 2.8 0 1.5 1.1 8.1 2.5 14.7 2.9 13.9 3 16.5 1.1 16.5 -0.9 0 -2 -2.4 -3 -6.7z"/>
  <path d="M134 219 c0 -2.1 1 -2.4 4.8 -1.4 3.6 1 2.7 3.4 -1.3 3.4 -2.8 0 -3.5 -0.4 -3.5 -2z"/>
  <path fill="url(#lg0)" d="M144 219.6 c0 -0.8 1.4 -1.7 3.3 -2.1 9.3 -2 21.5 -11.2 20 -15.1 -0.5 -1.2 -0.3 -1.5 0.6 -0.9 1 0.5 1.1 0.2 0.7 -1.3 -0.8 -2.4 4.4 -15.7 7.5 -19.3 1 -1.2 1.9 -1.8 1.9 -1.4 0 0.5 1.5 -0.5 3.3 -2.2 3.6 -3.4 7.7 -6.3 8.9 -6.3 0.5 0 0.8 1.1 0.8 2.5 0 1.6 -0.6 2.5 -1.5 2.5 -0.8 0 -1.5 0.5 -1.5 1 0 0.6 -1.6 1 -3.5 1 -3.1 0 -3.5 0.3 -3.5 2.6 0 1.4 -1.5 5.8 -3.4 9.7 -1.9 4 -3.8 8.4 -4.1 10 -0.4 1.5 -1.1 2.7 -1.6 2.7 -0.5 0 -0.9 0.7 -0.9 1.5 0 0.8 -0.6 1.5 -1.4 1.5 -0.9 0 -1.6 1.2 -1.8 3.3 -0.2 2.2 -1 3.5 -2.5 4.2 -1.3 0.5 -2.3 1.3 -2.3 1.7 0 0.5 -1.3 0.8 -3 0.8 -2 0 -3 0.5 -3 1.5 0 1 -1 1.5 -3 1.5 -1.6 0 -3 0.5 -3 1 0 0.6 -1.6 1 -3.5 1 -2.4 0 -3.5 -0.5 -3.5 -1.4z"/>
  <path d="M117.2 211.4 c-1.6 -1.7 -2.2 -3.4 -2 -5.4 l0.3 -2.9 5.4 5.5 5.4 5.4 -3.4 -0.1 c-2.3 0 -4.2 -0.8 -5.7 -2.5z"/>
  <path d="M355 195 c0 -3.3 0.3 -4 2 -4 2.1 0 2.5 1.6 1.4 5.8 -1.1 3.9 -3.4 2.7 -3.4 -1.8z"/>
  <path d="M2.6 190.8 c-0.3 -1.3 -0.6 -3.8 -0.6 -5.5 0 -2.6 0.4 -3.3 2 -3.3 1.8 0 2 0.7 2 5.5 0 4 -0.4 5.5 -1.4 5.5 -0.7 0 -1.6 -1 -2 -2.2z"/>
  <path d="M104 186.3 c0 -1 -0.3 -4.2 -0.6 -7 -0.6 -4.4 -0.4 -5.3 0.9 -5.3 1.5 0 2 1.2 3.2 9.8 0.6 3.8 0.5 4.2 -1.4 4.2 -1.3 0 -2.1 -0.6 -2.1 -1.7z"/>
  <path d="M2 171.3 c0 -4.3 1.1 -7.3 2.6 -7.3 1 0 1.4 1.4 1.4 5 0 4.3 -0.3 5 -2 5 -1.5 0 -2 -0.7 -2 -2.7z"/>
  <path d="M196 169.6 c0 -1.3 2.8 -2.6 5.8 -2.6 0.6 0 1.2 0.9 1.2 2 0 1.6 -0.7 2 -3.5 2 -2.3 0 -3.5 -0.5 -3.5 -1.4z"/>
  <path fill="url(#lg0)" d="M209.8 170.3 c-4.1 -0.3 -5.8 -0.8 -5.8 -1.8 0 -2.8 11.2 -3 16.3 -0.3 2.8 1.4 2 2.8 -1.5 2.6 -1.8 -0.1 -5.9 -0.3 -9 -0.5z"/>
  <path d="M103 161.5 c0 -2.8 0.4 -3.5 2 -3.5 2.1 0 2.4 1 1.4 4.8 -1 3.6 -3.4 2.7 -3.4 -1.3z"/>
  <path d="M353 155.5 c0 -4 2.4 -4.9 3.4 -1.2 1 3.7 0.7 4.7 -1.4 4.7 -1.6 0 -2 -0.7 -2 -3.5z"/>
  <path d="M5 144.8 c0 -3 1.3 -5.8 2.6 -5.8 0.9 0 1.4 1.2 1.4 3.5 0 2.8 -0.4 3.5 -2 3.5 -1.1 0 -2 -0.6 -2 -1.2z"/>
  <path d="M117 116.5 c0 -3.1 0.3 -3.5 2.5 -3.5 3 0 3 0.3 0.8 4.1 -2.3 3.8 -3.3 3.7 -3.3 -0.6z"/>
  <path d="M125 104.6 c0 -3.3 0.2 -3.6 3.1 -3.6 l3 0 -2.1 3 c-3.1 4.4 -4 4.5 -4 0.6z"/>
  <path d="M135 92.6 c0 -3.3 0.2 -3.6 3.1 -3.6 l3 0 -2.1 3 c-3.1 4.4 -4 4.5 -4 0.6z"/>
  <path d="M33 77.1 c0 -1 10.8 -15.1 11.6 -15.1 0.2 0 0.4 1.6 0.4 3.5 0 2.8 -0.4 3.5 -2 3.5 -1.5 0 -2 0.7 -2 2.5 0 1.6 -0.6 2.5 -1.5 2.5 -0.8 0 -1.5 0.9 -1.5 2 0 1.5 -0.7 2 -2.5 2 -1.4 0 -2.5 -0.4 -2.5 -0.9z"/>
  <path d="M48 58 c1.1 -1.6 3.7 -4.3 5.8 -6 l3.7 -3.1 0.3 2.6 c0.5 3.6 -5.2 9.5 -9.1 9.5 l-2.8 0 2.1 -3z"/>
  <path d="M189 56.4 c0 -2 0.5 -2.4 3 -2.4 1.7 0 3 -0.4 3 -1 0 -0.5 1.6 -1 3.5 -1 5.6 0 4.1 2.3 -3 4.6 l-6.5 2.2 0 -2.4z"/>
  <path d="M208 50 c0 -1.6 0.7 -2 3.5 -2 4 0 4.9 2.4 1.3 3.4 -3.8 1 -4.8 0.7 -4.8 -1.4z"/>
  <path d="M219 47.1 c0 -1.6 1.6 -2.2 11.3 -4 13.3 -2.5 16.7 -2.6 16.7 -0.6 0 0.9 -1.4 1.7 -3.7 2.1 -2.1 0.3 -8 1.5 -13.2 2.5 -11.5 2.3 -11.1 2.3 -11.1 0z"/>
  <path d="M248 42 c0 -1.7 0.7 -2 4.5 -2 4.9 0 6.4 2.3 2.3 3.4 -4.5 1.2 -6.8 0.7 -6.8 -1.4z"/>
  <path d="M65.8 41.7 c0.6 -0.7 3.2 -2.8 5.7 -4.6 l4.5 -3.2 0 3 c0 2.4 -0.4 3.1 -2 3.1 -1.1 0 -2 0.7 -2 1.5 0 1.1 -1.1 1.5 -3.6 1.5 -2.9 0 -3.4 -0.3 -2.6 -1.3z"/>
  <path d="M258 41 c0 -1.7 0.7 -2 4.5 -2 4.9 0 6.4 2.3 2.3 3.4 -4.5 1.2 -6.8 0.7 -6.8 -1.4z"/>
  <path d="M289 40 c0 -2.3 1 -2.6 2.8 -0.8 1.8 1.8 1.5 2.8 -0.8 2.8 -1.3 0 -2 -0.7 -2 -2z"/>
  <path d="M279 32.9 l0 -3 3 2.1 c4.4 3.1 4.5 4 0.6 4 -3.3 0 -3.6 -0.2 -3.6 -3.1z"/>
  <path d="M270 27.5 c0 -3 0.3 -3 4.1 -0.8 3.8 2.3 3.7 3.3 -0.6 3.3 -3.1 0 -3.5 -0.3 -3.5 -2.5z"/>
  <path d="M250 19 c0 -0.5 -1.1 -1 -2.5 -1 -2 0 -2.5 -0.5 -2.5 -2.5 l0 -2.5 5.2 2.1 c6.3 2.5 6.8 2.8 6.8 4 0 0.5 -1.6 0.9 -3.5 0.9 -1.9 0 -3.5 -0.4 -3.5 -1z"/>
  <path d="M221.3 10.3 c-1.5 -0.3 -2.3 -1.2 -2.3 -2.4 0 -2.2 0.6 -2.3 6.6 -0.8 8.2 2.1 4.4 4.9 -4.3 3.2z"/>
  <path d="M135 8.6 c0 -1.3 2.8 -2.6 5.8 -2.6 0.6 0 1.2 0.9 1.2 2 0 1.6 -0.7 2 -3.5 2 -2.3 0 -3.5 -0.5 -3.5 -1.4z"/>
  <path d="M150 5.6 c0 -1.5 1.8 -2 10.3 -3.2 4.2 -0.6 4.7 -0.4 4.7 1.3 0 1.7 -0.9 2.1 -5.2 2.7 -7.9 0.9 -9.8 0.8 -9.8 -0.8z"/>
  <path d="M198.8 6.3 c-4.1 -0.4 -4.8 -0.7 -4.8 -2.5 0 -1.9 0.4 -2 5.8 -1.4 9.1 1.1 11.2 1.7 11.2 3.2 0 1.4 -1.5 1.5 -12.2 0.7z"/>
 </g>
 <g fill="#64bbe8">
  <path d="M160.8 358.3 c-3.3 -0.8 -2 -3.3 1.7 -3.3 2.8 0 3.5 0.4 3.5 2 0 2 -1.4 2.3 -5.2 1.3z"/>
  <path d="M195 357 c0 -1.6 0.7 -2 3.5 -2 4 0 4.9 2.4 1.3 3.4 -3.8 1 -4.8 0.7 -4.8 -1.4z"/>
  <path d="M152.8 357.3 c-3.3 -0.8 -2 -3.3 1.7 -3.3 2.8 0 3.5 0.4 3.5 2 0 2 -1.4 2.3 -5.2 1.3z"/>
  <path d="M203 356.1 c0 -1.3 0.6 -2.1 1.8 -2.1 0.9 0 4.1 -0.3 7 -0.6 4.3 -0.6 5.2 -0.4 5.2 0.9 0 1.5 -1.2 2 -9.7 3.2 -3.9 0.6 -4.3 0.5 -4.3 -1.4z"/>
  <path d="M220 353 c0 -1.6 0.7 -2 3.5 -2 4 0 4.9 2.4 1.3 3.4 -3.8 1 -4.8 0.7 -4.8 -1.4z"/>
  <path fill="url(#lg1)" d="M121.5 349.1 c-19.9 -8.4 -30.7 -14.3 -42.5 -23 -9.1 -6.7 -25.6 -22.5 -31.7 -30.3 l-4.4 -5.8 3.1 0 c1.6 0 3.8 0.4 4.8 0.9 2.8 1.5 21.2 7.9 27.7 9.6 8.6 2.3 28.6 3.1 38.2 1.6 4.3 -0.7 12.7 -2.9 18.7 -4.8 6.1 -2 12.1 -3.3 13.7 -3.1 2.2 0.3 2.9 0 2.9 -1.2 0 -1 2.6 -2.9 7.3 -5.1 3.9 -1.9 7.4 -3.7 7.5 -4.1 0.2 -0.5 1 -0.8 1.8 -0.8 0.8 0 1.4 -0.4 1.4 -1 0 -0.5 0.7 -1 1.5 -1 0.8 0 1.5 -0.4 1.5 -1 0 -0.5 0.8 -1 1.8 -1 2.1 -0.1 5.2 -2.3 5.2 -3.9 0 -0.6 0.8 -1.1 1.8 -1.1 2.3 0 5.2 -3 5.2 -5.3 0 -1.2 0.9 -1.7 3.1 -1.7 l3 0 -1.9 2.8 c-2.6 3.5 -6.5 7 -12.4 11.2 -2.7 1.8 -4.8 3.5 -4.8 3.7 0 0.8 4.1 -1.9 10.4 -6.6 3.6 -2.7 6.6 -4.7 6.9 -4.5 0.2 0.3 1 -0.2 1.7 -1.1 2.1 -2.5 3.6 -1.7 3.5 1.8 -0.2 3.8 -2.3 7.2 -4.5 7.2 -0.8 0 -2.5 1.6 -3.8 3.5 -2.3 3.5 -2.3 3.5 -0.3 3.8 3 0.5 2.6 2.2 -0.5 2.2 -1.6 0 -2.4 0.5 -2.1 1.3 0.2 0.6 1.5 1.2 2.8 1.2 1.8 0 3.1 1.2 5.2 5 2.4 4.2 2.8 5.9 2.5 10.7 -0.4 5.6 -0.6 5.9 -6.4 11.2 -5.2 4.8 -15.4 11.2 -31.7 19.9 -6.5 3.5 -2.7 2.6 7.5 -1.8 10.7 -4.5 25.1 -12.6 32.8 -18.4 5.8 -4.4 6.5 -4.7 6.8 -2.9 0.6 3.5 -0.6 4.8 -4.3 4.8 -3.1 0 -3.5 0.3 -3.5 2.5 0 1.6 -0.6 2.5 -1.5 2.5 -0.8 0 -1.5 0.5 -1.5 1 0 0.6 -1.1 1 -2.5 1 -1.5 0 -2.5 0.6 -2.5 1.4 0 1.7 -2.2 2.6 -6.1 2.6 -2.1 0 -2.9 0.5 -2.9 1.8 0 1.9 -7.6 6.2 -11 6.2 -1.1 0 -2 0.4 -2 0.9 0 1.6 -20.3 7.9 -34.5 10.6 -1.1 0.3 -6 -1.3 -11 -3.4z m39.6 -47.3 l3.9 -1.1 -3.3 -3.1 c-1.7 -1.7 -3.1 -3.4 -3 -3.8 0.2 -0.4 -0.4 -0.5 -1.2 -0.2 -0.8 0.4 -1.2 1 -0.9 1.5 0.3 0.5 -0.1 0.6 -0.9 0.3 -0.8 -0.3 -3.6 0.4 -6.3 1.6 -2.7 1.1 -3.9 1.9 -2.7 1.6 1.3 -0.2 2.6 0 2.9 0.5 0.3 0.5 -0.1 0.9 -0.8 1 -1 0.1 3.5 1.6 8.1 2.8 0.2 0.1 2.1 -0.4 4.2 -1.1z"/>
  <path d="M231 350.1 c0 -1.7 0.6 -2.1 3 -2.1 1.7 0 3 -0.4 3 -1 0 -0.5 1.6 -1 3.5 -1 1.9 0 3.5 0.5 3.5 1.1 0 1.1 -5.5 3.7 -10.1 4.6 -2.5 0.5 -2.9 0.2 -2.9 -1.6z"/>
  <path d="M250 343.5 c0 -2.2 0.4 -2.5 3.6 -2.5 4.4 0 4.2 1.8 -0.4 3.7 -3.1 1.3 -3.2 1.2 -3.2 -1.2z"/>
  <path d="M268 334.5 c0 -2 0.5 -2.5 2.5 -2.5 1.6 0 2.5 -0.6 2.5 -1.5 0 -1 1.1 -1.5 3.5 -1.5 1.9 0 3.5 0.3 3.5 0.8 0 0.7 -10.2 7.2 -11.4 7.2 -0.3 0 -0.6 -1.1 -0.6 -2.5z"/>
  <path d="M282 326.1 c0 -2.4 0.4 -3.1 2 -3.1 1.1 0 2 -0.7 2 -1.5 0 -1.1 1.1 -1.5 3.6 -1.5 4.3 0 3.8 0.9 -3.1 5.9 l-4.5 3.2 0 -3z"/>
  <path d="M303.2 307.9 c0.3 -3.2 0.6 -3.4 4.2 -3.7 3.6 -0.3 3.8 -0.2 2.6 1.3 -0.7 0.9 -2.6 2.5 -4.2 3.7 l-2.9 2 0.3 -3.3z"/>
  <path d="M216.7 302.8 c4.4 -5.8 12.6 -15.8 12.9 -15.8 0.2 0 0.4 1.6 0.4 3.5 0 2.8 -0.4 3.5 -2 3.5 -1.5 0 -2 0.7 -2 2.5 0 1.8 -0.5 2.5 -2 2.5 -1.5 0 -2 0.7 -2 2.5 0 2.1 -0.5 2.5 -3.1 2.5 -2.4 0 -2.9 -0.3 -2.2 -1.2z"/>
  <path d="M313 297.8 c0 -3.1 0.3 -3.8 2 -3.8 1.5 0 2 -0.7 2 -2.5 0 -2.1 0.5 -2.5 3.1 -2.5 l3 0 -2 2.8 c-1.1 1.5 -3.3 4.3 -5 6.2 l-3 3.5 -0.1 -3.7z"/>
  <path d="M324 283.6 c0 -2.9 0.4 -3.6 2 -3.6 1.6 0 2 -0.7 2 -3 0 -2.5 0.4 -3 2.5 -3 1.4 0 2.5 0.3 2.5 0.6 0 1 -6.9 11.2 -8 11.9 -0.6 0.4 -1 -0.9 -1 -2.9z"/>
  <path d="M231 284.5 c0 -1.2 9.5 -16.5 10.3 -16.5 0.8 0 0.9 5.2 0.1 7.4 -0.3 0.9 -1.2 1.6 -2 1.6 -0.8 0 -1.4 1 -1.4 2.5 0 1.4 -0.4 2.5 -1 2.5 -0.5 0 -1 0.7 -1 1.5 0 0.9 -0.9 1.5 -2.5 1.5 -1.4 0 -2.5 -0.2 -2.5 -0.5z"/>
  <path fill="url(#lg1)" d="M204 271.7 c0 -1 -0.5 -1.4 -1.5 -1.1 -2.6 1 -3.6 -3.7 -1.4 -6.7 1 -1.4 1.6 -2.9 1.2 -3.3 -0.3 -0.3 -0.2 -0.6 0.4 -0.6 0.6 0 2.1 -1.7 3.2 -3.7 l2.2 -3.8 -3.3 3.6 c-3.3 3.5 -10.5 9.7 -8 6.9 0.6 -0.8 1.2 -2.6 1.2 -4.1 0 -1.7 0.9 -3.5 2.5 -4.7 1.4 -1.1 2.5 -2.5 2.5 -3.1 0 -0.5 0.9 -1.5 2 -2.1 1.1 -0.6 2 -1.7 2 -2.5 0 -0.8 0.8 -1.9 1.9 -2.4 1 -0.6 2.2 -2.2 2.5 -3.6 0.4 -1.4 1.1 -2.5 1.6 -2.5 0.6 0 1 -0.7 1 -1.5 0 -0.8 0.7 -1.5 1.5 -1.5 0.9 0 1.5 -0.9 1.5 -2.5 0 -2 0.5 -2.5 2.5 -2.5 2.8 0 3.1 0.7 1.2 3.5 -0.7 1.1 -2.4 3.8 -3.6 6 -2.2 3.9 -2.2 3.9 -0.1 1.2 1.2 -1.5 2.7 -2.4 3.3 -2 0.6 0.4 0.8 0 0.5 -0.9 -0.4 -0.9 0 -1.5 0.8 -1.5 1.5 0 1.5 0 1.6 5.5 0.1 8.1 -2 14.6 -6.4 19.2 -1.2 1.3 -2.2 2.6 -2 2.7 0.1 0.2 -1.5 1.8 -3.5 3.5 -7.8 6.6 -7.3 6.3 -7.3 4.5z"/>
  <path fill="url(#lg1)" d="M244.6 259.3 c5.1 -11.9 6.7 -16.4 8.9 -25.6 1.3 -5.6 2.6 -11.9 3 -13.9 0.4 -2.5 1.1 -3.8 2.2 -3.8 1.3 0 1.5 0.9 0.9 5.8 -0.9 8.2 -5.6 27.2 -6.7 27.2 -0.5 0 -0.9 1.1 -0.9 2.5 0 1.4 -0.4 2.5 -1 2.5 -0.5 0 -1 0.9 -1 2 0 3.7 -2.2 7 -4.7 7 -2.3 0 -2.3 0 -0.7 -3.7z"/>
  <path d="M338 259.6 c0 -1.9 0.7 -4.1 1.5 -5 0.8 -0.8 1.5 -2.4 1.5 -3.5 0 -1.6 0.6 -2.1 2.5 -2.1 l2.5 0 -2.1 5.1 c-3.8 9.8 -5.9 11.7 -5.9 5.5z"/>
  <path d="M349 230.6 c0 -1.4 0.5 -4.7 1.2 -7.5 0.9 -3.8 1.6 -5.1 3 -5.1 2.2 0 2.2 0.4 0.2 8.5 -1 4.1 -2.2 6.5 -3 6.5 -0.8 0 -1.4 -1 -1.4 -2.4z"/>
  <path d="M131.8 220.3 c-1.1 -0.3 -1.8 -1.4 -1.8 -2.8 l0 -2.3 5 1.6 c5.7 1.8 6.8 4.3 1.8 4.1 -1.8 -0.1 -4.1 -0.3 -5 -0.6z"/>
  <path d="M145 219.7 c0 -0.8 1.6 -1.8 3.5 -2.4 3.3 -1.1 3.5 -1 3.5 1.3 0 2.1 -0.5 2.4 -3.5 2.4 -2.2 0 -3.5 -0.5 -3.5 -1.3z"/>
  <path fill="url(#lg1)" d="M225 217.5 c0 -1.9 0.5 -3.5 1 -3.5 0.6 0 1 -0.7 1 -1.7 0 -2.6 3.3 -12.3 4.2 -12.3 0.4 0 0.8 -1.3 0.8 -3 0 -2.3 0.4 -3 2 -3 1.1 0 2 0.6 2 1.4 0 1.6 -6.7 21.1 -8.1 23.9 -1.6 2.8 -2.9 2 -2.9 -1.8z"/>
  <path d="M353 213.8 c0 -1.3 0.3 -4.7 0.6 -7.5 0.6 -4.4 1 -5.3 2.7 -5.3 1.7 0 1.9 0.5 1.3 4.8 -1.2 8.4 -1.7 10.2 -3.2 10.2 -0.8 0 -1.4 -1 -1.4 -2.2z"/>
  <path d="M120 212 c0 -2.7 -0.3 -3 -3 -3 -2.8 0 -3 -0.3 -3 -3.6 l0 -3.7 5.4 5.7 c3 3.1 5.9 5.6 6.5 5.6 0.6 0 1.1 0.5 1.1 1 0 0.6 -1.6 1 -3.5 1 -3.2 0 -3.5 -0.2 -3.5 -3z"/>
  <path d="M158 214.2 c0 -0.4 1.3 -1.6 3 -2.5 1.6 -1 3.7 -3.1 4.7 -4.7 2.3 -3.9 3.3 -3.8 3.3 0.5 0 2.8 -0.4 3.5 -2 3.5 -1.3 0 -2 0.7 -2 2 0 1.6 -0.7 2 -3.5 2 -1.9 0 -3.5 -0.4 -3.5 -0.8z"/>
  <path fill="url(#lg1)" d="M257 212.3 c0 -4.3 1.1 -7.3 2.6 -7.3 1 0 1.4 1.4 1.4 5 0 4.3 -0.3 5 -2 5 -1.5 0 -2 -0.7 -2 -2.7z"/>
  <path d="M171.3 194.8 c1.9 -4.6 3.7 -4.8 3.7 -0.4 0 3.2 -0.3 3.6 -2.5 3.6 -2.4 0 -2.5 -0.1 -1.2 -3.2z"/>
  <path d="M355 193 c0 -3.3 0.3 -4 2 -4 2.1 0 2.5 1.6 1.4 5.8 -1.1 3.9 -3.4 2.7 -3.4 -1.8z"/>
  <path d="M105.2 191.3 c-0.6 -2.1 -1.4 -6.6 -1.8 -10 -0.6 -5.4 -0.4 -6.3 0.9 -6.3 1.1 0 1.8 1.2 2.2 3.8 0.3 2 1.4 6.5 2.4 10 l1.9 6.2 -2.2 0 c-1.8 0 -2.5 -0.9 -3.4 -3.7z"/>
  <path d="M234 189.5 c0 -2.8 0.4 -3.5 2 -3.5 2.1 0 2.4 1 1.4 4.8 -1 3.6 -3.4 2.7 -3.4 -1.3z"/>
  <path d="M257.6 190.8 c-1.2 -4.8 -0.7 -7.8 1.4 -7.8 1.7 0 2 0.7 2 5 0 3.6 -0.4 5 -1.4 5 -0.7 0 -1.6 -1 -2 -2.2z"/>
  <path fill="url(#lg0)" d="M234 182.6 c0 -0.7 -0.9 -1.6 -2 -1.9 -1.2 -0.3 -2 -1.4 -2 -2.6 0 -1.6 -0.6 -2.1 -2.5 -2.1 -1.4 0 -2.5 -0.4 -2.5 -0.9 0 -0.5 -1.1 -1.2 -2.5 -1.5 -1.4 -0.4 -2.5 -1.1 -2.5 -1.6 0 -0.6 -1.3 -1 -3 -1 -2.3 0 -3 -0.4 -3 -2 0 -2.4 1.2 -2.5 7.1 -0.5 5.7 2 16.9 10.9 16.9 13.5 0 1.3 -0.7 2 -2 2 -1.1 0 -2 -0.6 -2 -1.4z"/>
  <path d="M256.4 177.3 c-1.9 -11 -4.6 -23.6 -6.5 -30.3 -1.1 -4.1 -2.1 -9.7 -2.1 -12.5 -0.1 -7.3 2 -16.5 3.8 -16.5 1.7 0 1.8 2.6 0.3 10.4 -0.9 5.2 -0.7 7 2 17.9 3.2 12.5 6.1 28.1 6.1 32.3 0 4 -2.8 2.9 -3.6 -1.3z"/>
  <path d="M180.5 178 c0.3 -0.5 1.9 -1.9 3.5 -3 l3 -2.1 0 3 c0 2.9 -0.3 3.1 -3.6 3.1 -2 0 -3.3 -0.4 -2.9 -1z"/>
  <path d="M355 174 c0 -3.6 0.4 -5 1.4 -5 1.5 0 2.6 3 2.6 7.3 0 2 -0.5 2.7 -2 2.7 -1.7 0 -2 -0.7 -2 -5z"/>
  <path fill="url(#lg0)" d="M190 171.9 c0 -1.3 5.6 -3.7 10.9 -4.5 3.6 -0.6 4.1 -0.4 4.1 1.2 0 1.5 -1.2 2.2 -5.3 3.2 -6.5 1.5 -9.7 1.5 -9.7 0.1z"/>
  <path d="M352.7 155.8 c-2.1 -13.4 -2.1 -13.8 -0.3 -13.8 1.4 0 2.1 2.4 4.6 16.4 1.3 7.9 1.3 8.6 -0.8 8.6 -1.4 0 -2 -1.9 -3.5 -11.2z"/>
  <path d="M103 160.5 c0 -2.8 0.4 -3.5 2 -3.5 2.1 0 2.4 1 1.4 4.8 -1 3.6 -3.4 2.7 -3.4 -1.3z"/>
  <path d="M104 152.5 c0 -2.8 0.4 -3.5 2 -3.5 2.1 0 2.4 1 1.4 4.8 -1 3.6 -3.4 2.7 -3.4 -1.3z"/>
  <path d="M106 143.5 c0 -2.8 0.4 -3.5 2 -3.5 2.1 0 2.4 1 1.4 4.8 -1 3.6 -3.4 2.7 -3.4 -1.3z"/>
  <path d="M111 129.6 c0 -3.2 0.3 -3.6 2.5 -3.6 2.4 0 2.5 0.1 1.2 3.2 -1.9 4.6 -3.7 4.8 -3.7 0.4z"/>
  <path d="M251 115.7 c0 -2.5 3.8 -12.4 7.5 -19.9 8.4 -16.8 19.3 -28.1 32.2 -33.4 3.2 -1.4 3.3 -1.4 3.3 0.9 0 2.5 -3.3 4.7 -7 4.7 -1.1 0 -2 0.7 -2 1.5 0 0.8 -0.9 1.5 -2 1.5 -1.1 0 -2 0.7 -2 1.5 0 1 -1.1 1.5 -3.5 1.5 -3.4 0 -3.5 0.2 -3.5 3.6 0 2.7 -0.5 3.7 -2 4.1 -1.1 0.3 -2 1.4 -2 2.4 0 1.1 -0.4 1.9 -1 1.9 -0.5 0 -1 0.7 -1 1.5 0 0.8 -0.4 1.5 -1 1.5 -0.5 0 -1 0.7 -1 1.5 0 0.8 -0.9 1.5 -2 1.5 -1.6 0 -2 0.7 -2 3.5 0 2.4 -0.5 3.5 -1.5 3.5 -0.9 0 -1.5 1 -1.5 2.6 0 1.4 -1 5.4 -2.2 9 -1.7 4.6 -2.8 6.4 -4 6.4 -1 0 -1.8 -0.6 -1.8 -1.3z"/>
  <path d="M122 108.5 c0 -3.2 0.2 -3.5 3 -3.5 l3 0 -2.2 3.5 c-2.9 4.4 -3.8 4.4 -3.8 0z"/>
  <path d="M128 100.8 c0 -3.6 0.2 -3.8 3 -3.8 2.8 0 3 -0.3 3 -3.5 0 -3.2 0.2 -3.5 3.1 -3.5 l3 0 -2 2.8 c-1.1 1.5 -3.9 4.7 -6 7.2 l-4 4.5 -0.1 -3.7z"/>
  <path d="M146 81.1 c0 -2.4 0.4 -3.1 2 -3.1 1.1 0 2 -0.7 2 -1.5 0 -1 1 -1.5 3 -1.5 2.3 0 3 -0.4 3 -2 0 -1.1 0.7 -2 1.5 -2 0.8 0 1.5 -0.4 1.5 -1 0 -0.5 1.6 -1 3.5 -1 1.9 0 3.5 0.3 3.5 0.8 0 0.4 -2.6 2.3 -5.7 4.4 -3.2 2 -7.7 5 -10 6.8 l-4.3 3.2 0 -3.1z"/>
  <path d="M314.7 75.3 c-0.4 -0.3 -0.7 -2.2 -0.7 -4.1 0 -3 0.2 -3.3 1.5 -2.2 0.9 0.7 2.5 2.6 3.6 4.2 l2 2.8 -2.9 0 c-1.6 0 -3.2 -0.3 -3.5 -0.7z"/>
  <path d="M297 61.5 c0 -0.8 1.4 -1.7 3.4 -2.1 3.9 -0.7 5.6 0 5.6 2.2 0 1 -1.2 1.4 -4.5 1.4 -3.3 0 -4.5 -0.4 -4.5 -1.5z"/>
 </g>
 <g fill="#9036ff">
  <path d="M82.7 304.9 c-9.4 -1.4 -33.1 -9.4 -37.7 -12.7 -8.4 -6.2 -24.5 -33.3 -32.4 -54.3 -3.4 -9.3 -7.7 -28.2 -9.2 -40.1 -0.6 -5.5 -0.5 -5.8 1.5 -5.8 1.6 0 2.1 0.6 2.1 2.8 0 6.1 4.1 25.4 7.6 35.3 4 11.9 13.8 32.7 18.3 39.3 1.7 2.4 3.1 4.9 3.1 5.4 0 0.6 0.7 1.2 1.5 1.6 0.8 0.3 1.5 1.1 1.5 1.8 0 0.7 0.9 1.9 2 2.6 1.1 0.7 2 1.6 2 2.2 0 1.8 4.7 5.5 9.1 7.2 2.4 0.9 7.3 2.9 10.9 4.4 10 4.1 18.7 6.4 27.8 7.1 7.1 0.5 8.2 0.8 8.2 2.4 0 1.6 -0.8 1.9 -5.2 1.8 -2.9 -0.1 -7.9 -0.5 -11.1 -1z"/>
  <path d="M107 304 c0 -1.6 0.7 -2 3.4 -2 1.9 0 7 -0.7 11.3 -1.5 9.8 -1.9 12.3 -1.9 12.3 0 0 2 -14.6 5.5 -23.2 5.5 -3.1 0 -3.8 -0.3 -3.8 -2z"/>
  <path fill="url(#lg3)" d="M142 296.7 c0 -1.9 0.8 -2.6 3.9 -3.5 2.1 -0.7 4.6 -1.2 5.5 -1.2 0.9 0 1.6 -0.4 1.6 -0.8 0 -0.5 2.8 -2.2 6.3 -3.8 3.4 -1.6 6.4 -3.2 6.5 -3.6 0.2 -0.5 1 -0.8 1.8 -0.8 0.8 0 1.4 -0.4 1.4 -1 0 -0.5 0.7 -1 1.5 -1 0.8 0 1.5 -0.4 1.5 -1 0 -0.5 0.7 -1 1.5 -1 0.8 0 1.5 -0.4 1.5 -1 0 -0.5 0.7 -1 1.5 -1 0.8 0 1.5 -0.4 1.5 -0.8 0 -0.5 -4.6 -1.2 -10.2 -1.5 -5.7 -0.4 -12 -1.1 -14 -1.7 -3.5 -1 -3.8 -1.4 -3.8 -4.5 0 -4 0.5 -4.2 10.7 -2.4 7.8 1.4 27.3 0.3 27.3 -1.4 0 -1.6 4.7 -3.7 8.3 -3.7 2.8 0 2.7 0.2 -4 7.5 -10.1 11.2 -28.8 23.3 -44.2 28.6 -6.6 2.3 -6.1 2.4 -6.1 -0.4z"/>
  <path fill="url(#lg3)" d="M126.2 259.9 c-3.4 -2.2 -9.1 -7.2 -12.7 -11.1 -5.7 -6.2 -6.5 -7.5 -6.5 -10.9 0 -3.7 0.1 -3.9 3.3 -3.9 2.7 0.1 4 1 8.7 6.8 3.1 3.7 8.8 9 12.7 11.7 6.4 4.4 7.2 5.4 7.2 8.3 0.1 3 -0.1 3.2 -3.3 3.2 -2.3 0 -5.3 -1.3 -9.4 -4.1z"/>
  <path d="M95 221 c-0.6 -1.1 -1.4 -4.3 -1.7 -7 l-0.6 -5 3.5 0 c3.2 0 3.7 0.4 5.2 4.3 0.9 2.3 1.6 5.5 1.6 7 0 2.4 -0.4 2.7 -3.5 2.7 -2.4 0 -3.7 -0.6 -4.5 -2z"/>
  <path fill="url(#lg0)" d="M232.7 182.3 c-0.4 -0.3 -0.7 -1.7 -0.7 -3 0 -1.9 -0.5 -2.3 -3 -2.3 -2.7 0 -3 -0.3 -3 -3.1 l0 -3 2.8 2 c4.4 3.2 9.2 7.9 9.2 9 0 1.2 -4.3 1.5 -5.3 0.4z"/>
  <path d="M2 177 c0 -4.3 0.3 -5 2 -5 1.7 0 2 0.7 2 5 0 4.3 -0.3 5 -2 5 -1.7 0 -2 -0.7 -2 -5z"/>
  <path fill="url(#lg3)" d="M3.3 157.6 c0.4 -4.1 1.6 -11.9 2.8 -17.3 11.5 -53.4 44 -95.3 92.4 -119.2 26.5 -13.1 51.6 -19 81 -19 31.1 -0.1 59.1 6.5 85.5 20 10.6 5.4 27.5 16.8 27.2 18.4 -0.1 0.6 -7.5 1.3 -18.4 1.6 -25.4 0.9 -38.9 2.8 -58.6 8.3 -17.2 4.9 -27.6 8.7 -37.8 13.9 l-10.4 5.4 0 -2.8 c0 -2.4 1 -3.3 7.8 -6.9 9.5 -5.2 32.7 -13 48.7 -16.4 6.6 -1.3 18.8 -3.2 27 -4.1 19.1 -2 21.5 -2.4 21.5 -3.5 0 -0.4 -1.9 -1.1 -4.2 -1.5 -2.4 -0.3 -8.1 -2.6 -12.8 -4.9 -4.7 -2.4 -9.6 -4.7 -11 -5.1 -1.4 -0.4 -3.6 -1.6 -5 -2.5 -4.4 -3.2 -10.1 -3.9 -29 -4.1 -13.5 0 -20.7 0.4 -26.5 1.6 -4.4 0.9 -12.3 2 -17.5 2.6 -5.2 0.5 -13.9 1.5 -19.2 2.1 -7.6 0.9 -10 0.8 -11.2 -0.1 -1.9 -1.6 -19.2 0 -27.6 2.5 -3 0.9 -7.7 1.9 -10.5 2.3 -6.2 0.9 -15.7 6.5 -28.3 16.7 -5 4.1 -9.6 7.4 -10.2 7.4 -0.5 0 -1 0.7 -1 1.5 0 0.8 -0.5 1.5 -1.1 1.5 -1.4 0 -3.9 2.5 -3.9 3.9 0 0.6 -0.9 1.1 -2 1.1 -1.3 0 -2 0.7 -2 1.9 0 1.1 -1.1 2.8 -2.5 3.9 -1.4 1.1 -2.5 2.5 -2.5 3.1 0 0.6 -0.9 1.6 -2 2.3 -1.1 0.7 -2 1.6 -2 2.1 0 0.4 -1.7 3.4 -3.8 6.5 -6.8 10 -13.3 22 -16.8 31 -6.5 16.3 -12.4 40 -12.4 49.3 0 3.3 -0.3 3.9 -2.1 3.9 -2.1 0 -2.2 -0.3 -1.6 -7.4z"/>
  <path d="M147 80.1 c0 -2.9 0.3 -3.1 3.6 -3.1 3.9 0 3.8 0.9 -0.6 4 l-3 2.1 0 -3z"/>
 </g>
 <g fill="#8229ff">
  <path d="M87.7 305.4 c-0.3 -0.4 -2.3 -0.8 -4.4 -1 -5.4 -0.6 -7.4 -1 -10.6 -2.2 -1.5 -0.7 -3.1 -1.1 -3.5 -1 -0.4 0.1 -1.7 -0.3 -2.9 -1 -1.2 -0.6 -3.2 -1.4 -4.5 -1.6 -1.3 -0.3 -2.5 -0.5 -2.8 -0.6 -0.3 -0.2 -0.8 -0.2 -1.2 -0.1 -0.5 0 -0.8 -0.4 -0.8 -1 0 -0.5 -0.4 -0.7 -1 -0.4 -0.5 0.3 -1 0.2 -1 -0.4 0 -0.6 -0.7 -0.7 -1.7 -0.4 -1 0.4 -1.4 0.2 -0.9 -0.5 0.4 -0.7 -0.3 -1 -2.1 -0.9 -1.8 0.1 -2.7 -0.2 -2.5 -1.1 0.1 -0.7 -0.3 -1.2 -1 -1 -1.4 0.3 -6.8 -4.7 -6.8 -6.2 0 -0.6 -0.9 -1.5 -2 -2.2 -1.1 -0.7 -2 -1.7 -2 -2.3 0 -0.6 -1.3 -2.5 -2.9 -4.3 -1.7 -1.7 -2.8 -3.2 -2.5 -3.2 0.3 0 -0.3 -1.2 -1.4 -2.7 -2 -2.9 -10.7 -19.7 -12.2 -23.9 -0.8 -2.1 -0.7 -2.4 1.5 -2.4 1.8 0 2.5 0.5 2.5 2 0 1.1 0.5 2 1 2 0.6 0 1 1.4 1 3 0 2 0.5 3 1.5 3 0.8 0 1.5 0.9 1.5 2 0 1.1 0.4 2 0.9 2 0.5 0 1.7 2 2.8 4.5 1 2.5 2.1 4.5 2.6 4.5 0.4 0 0.7 1.4 0.7 3 0 2.3 0.4 3 2 3 1.3 0 2 0.7 2 1.9 0 1 0.9 2.1 2 2.4 1.2 0.3 2 1.4 2 2.6 0 1.2 0.6 2.1 1.5 2.1 0.9 0 1.5 0.9 1.5 2.4 0 1.9 0.6 2.4 3.8 2.8 2 0.3 6.5 1.9 10 3.6 7.9 3.9 20.3 8 26.5 8.8 4.1 0.6 4.7 1 4.7 3 0 2.5 -0.2 2.8 -1.3 1.8z"/>
  <path d="M94.8 305.3 c-1 -0.2 -1.8 -1.1 -1.8 -1.9 0 -1.1 2 -1.4 10 -1.4 7.8 0 10 0.3 10 1.4 0 0.7 -1 1.6 -2.2 2 -2.6 0.6 -13.4 0.6 -16 -0.1z"/>
  <path d="M114 303.8 c0 -2.3 0.5 -2.6 5.5 -3.2 3 -0.3 9 -1.7 13.2 -3.1 8 -2.5 13.3 -3.2 13.3 -1.6 0 2.6 -10.9 6.4 -25 8.6 -1.4 0.2 -3.5 0.7 -4.7 1 -2 0.6 -2.3 0.4 -2.3 -1.7z"/>
  <path fill="url(#lg3)" d="M150 293.6 c0 -1.8 1.6 -3 8.2 -6.1 4.5 -2.2 9.3 -5 10.7 -6.3 1.3 -1.2 3.5 -2.5 4.7 -2.8 3 -0.8 4 -3.4 1.4 -3.4 -1.1 0 -2 -0.6 -2 -1.4 0 -1.5 3 -2.6 7.2 -2.6 1.5 0 2.9 -0.4 3.3 -0.9 0.3 -0.6 -1.7 -0.7 -5 -0.4 -3.8 0.4 -5.5 0.2 -5.5 -0.6 0 -0.6 0.9 -1.1 1.9 -1.1 1.1 0 2.1 -0.3 2.3 -0.7 1 -2.5 19.8 -6.7 19.8 -4.5 0 0.9 -4.2 3.7 -5.3 3.4 -0.4 -0.1 -0.6 0.1 -0.5 0.5 0.5 2.7 -9.1 13.3 -12.2 13.3 -0.5 0 -1 0.5 -1 1 0 0.6 -0.7 1 -1.5 1 -0.8 0 -1.5 0.5 -1.5 1 0 0.6 -0.7 1 -1.5 1 -0.8 0 -1.5 0.5 -1.5 1 0 0.6 -0.6 1 -1.4 1 -0.8 0 -1.6 0.3 -1.8 0.8 -0.4 0.8 -15.7 8.6 -17.5 8.8 -0.7 0.1 -1.3 -0.8 -1.3 -2z"/>
  <path fill="url(#lg3)" d="M156 274.3 c-4.2 -0.8 -23.6 -9.2 -25.8 -11.3 -1.2 -1.1 -2.6 -2 -3.2 -2 -0.5 0 -1 -0.4 -1 -1 0 -0.5 -0.7 -1 -1.5 -1 -0.8 0 -1.9 -0.9 -2.5 -2 -0.6 -1.1 -1.7 -2 -2.4 -2 -3.7 0 -20.8 -23.2 -25.4 -34.5 -1.4 -3.4 -2.7 -8.9 -3 -12.7 l-0.5 -6.8 3.6 0 c3.2 0 3.6 0.3 4.2 3.1 1.2 5.4 6.1 16.3 10.4 23.1 2.2 3.6 4.1 7 4.1 7.7 0 0.6 0.7 1.1 1.5 1.1 0.8 0 1.5 0.9 1.5 2 0 1.2 0.9 2.4 2.3 2.9 1.3 0.5 4.4 3.2 6.9 6 2.5 2.8 5.1 5.1 5.7 5.1 0.6 0 1.1 0.5 1.1 1 0 0.6 0.7 1 1.5 1 0.8 0 1.5 0.5 1.5 1 0 0.6 0.6 1 1.4 1 0.8 0 1.6 0.3 1.8 0.8 0.8 1.9 19.3 9.2 23.5 9.2 1.2 0 2.3 0.5 2.3 1 0 0.6 1.1 1 2.5 1 1.4 0 2.5 0.5 2.5 1.1 0 0.8 -2.2 1 -7.2 0.6 -7.2 -0.5 -5.5 0.3 3.5 1.8 2.3 0.4 3.7 1.1 3.7 2 0 1.2 -1.3 1.5 -5.2 1.4 -2.9 -0.1 -6.4 -0.4 -7.8 -0.6z m-22.1 -14.7 c-0.2 -0.2 -3.1 -2.4 -6.4 -4.8 -3.4 -2.5 -8.3 -7.1 -11 -10.4 -2.7 -3.2 -5.3 -6.3 -5.7 -6.8 -0.5 -0.6 -0.8 -0.6 -0.8 0 0 2.8 20.8 22.4 23.8 22.4 0.3 0 0.3 -0.2 0.1 -0.4z m-35.2 -42.6 c-0.7 -1.7 -1.3 -2.6 -1.5 -2.1 -0.3 1 1.5 5.1 2.2 5.1 0.3 0 -0.1 -1.4 -0.7 -3z"/>
  <path d="M7.6 220.1 c-2 -8.8 -2 -9.1 0.2 -9.1 1.4 0 2.1 1.3 3 5.8 1.6 7.6 1.5 10.2 -0.2 10.2 -1 0 -2 -2.4 -3 -6.9z"/>
  <path d="M4.6 203.8 c-1 -3.8 -0.7 -4.8 1.4 -4.8 1.6 0 2 0.7 2 3.5 0 4 -2.4 4.9 -3.4 1.3z"/>
  <path d="M3.6 195.8 c-1.1 -4.2 -0.7 -5.8 1.4 -5.8 1.7 0 2 0.7 2 4 0 4.5 -2.3 5.7 -3.4 1.8z"/>
  <path d="M3 164.8 c0 -3 1.3 -5.8 2.6 -5.8 0.9 0 1.4 1.2 1.4 3.5 0 2.8 -0.4 3.5 -2 3.5 -1.1 0 -2 -0.6 -2 -1.2z"/>
  <path fill="url(#lg3)" d="M4 155.1 c0 -2.8 3.5 -19 6.1 -27.8 7.7 -26.7 21.4 -51.1 39.1 -69.6 11.7 -12.2 38.2 -31.7 43.7 -32.1 0.9 0 2.3 -0.8 3.1 -1.6 0.8 -0.8 2 -1.6 2.5 -1.7 0.6 -0.1 1.9 -0.5 3 -0.8 1.4 -0.5 1.6 -0.4 0.6 0.3 -2.6 1.8 0.6 2.1 8.5 0.7 18 -3.3 23.3 -3.7 26.2 -2.3 2.1 1.1 4.5 1.2 9.7 0.6 3.9 -0.4 11.3 -1.2 16.5 -1.7 5.2 -0.5 11.6 -1.5 14.2 -2 5.8 -1.3 20.7 -3.4 22.8 -3.2 0.8 0 8.2 0.3 16.3 0.6 15.6 0.5 21.5 1.5 25.7 4.5 1.4 0.9 3.6 2.1 5 2.5 1.4 0.4 5.8 2.5 9.9 4.6 4.1 2.2 9.7 4.5 12.5 5.1 2.8 0.6 5.9 1.5 6.9 2 2.2 1.2 2.2 4.8 0 4.9 -1.5 0 -1.5 0.2 0.2 0.8 1.5 0.6 0.4 1 -4 1.5 -39.5 4.2 -50.5 6.3 -72.5 13.6 -13.2 4.3 -24.2 9.5 -32.7 15.3 -1.7 1.2 -6.6 4.4 -10.9 7.1 -4.3 2.8 -11.7 8.3 -16.5 12.3 -6.7 5.6 -9.4 7.3 -11.8 7.3 -2.6 0 -3.1 -0.4 -3.1 -2.5 0 -1.7 -0.6 -2.5 -1.7 -2.5 -0.9 0 -2.4 -0.7 -3.4 -1.6 -1.7 -1.5 -2 -1.4 -4.1 1 -2.1 2.4 -3.1 2.6 -12.1 3.1 -11.5 0.5 -16.6 2.7 -24.8 10.7 -4.8 4.8 -5 4.9 -10.6 4.7 -3.5 -0.1 -7.3 0.5 -9.5 1.5 -2.1 0.9 -5.4 1.6 -7.4 1.6 -2.5 0 -4.1 0.7 -5.3 2.2 -1 1.1 -4.4 3.1 -7.6 4.2 -5.4 1.9 -6.2 2.6 -9.2 7.9 -1.8 3.3 -4.5 7.1 -6 8.7 -3.9 3.8 -5.3 5.7 -5.3 7 0 0.5 -0.7 1 -1.5 1 -0.8 0 -1.5 0.4 -1.5 0.9 0 0.5 -1.3 1.1 -3 1.4 -2.7 0.6 -3 1.1 -3.6 5.7 -0.5 4 -1 5 -2.5 5 -1.1 0 -1.9 -0.4 -1.9 -0.9z"/>
  <path d="M104 120.1 c0 -4.9 0.9 -6.1 4.6 -6.1 3.1 0 3.4 0.3 3.4 2.9 0 4.9 -0.9 6.1 -4.6 6.1 -3.1 0 -3.4 -0.3 -3.4 -2.9z"/>
  <path fill="url(#lg3)" d="M91 109.3 c0 -1.6 0.5 -4.5 1.1 -6.5 1 -3.7 1.2 -3.8 5.4 -3.8 l4.5 0 0 4 c0 6 -2.3 9 -7.1 9 -3.6 0 -3.9 -0.2 -3.9 -2.7z"/>
 </g>
 <g fill="#0b93e2">
  <path d="M161.8 358.3 c-3.6 -0.9 -2 -3.3 2.2 -3.3 3.3 0 4 0.3 4 2 0 2 -2 2.4 -6.2 1.3z"/>
  <path d="M194 357 c0 -1.6 0.7 -2 3.5 -2 4 0 4.9 2.4 1.3 3.4 -3.8 1 -4.8 0.7 -4.8 -1.4z"/>
  <path d="M149.6 356.9 c-8.3 -1.2 -19.6 -4.4 -28.3 -8.1 -8.7 -3.6 -9.2 -4.7 -0.7 -1.7 5.3 2 6.7 2.1 13.4 1.1 4.2 -0.6 11.7 -2.4 16.8 -4 l9.2 -3 0 2.3 c0 1.9 -1 2.5 -7.7 4.4 -4.3 1.2 -8.5 2.5 -9.3 2.8 -2 0.7 2.7 2.1 10.2 2.9 4.8 0.5 5.8 1 5.8 2.5 0 2.1 -0.4 2.1 -9.4 0.8z"/>
  <path d="M209 355.1 c0 -1.5 0.6 -2.1 2.3 -2.1 1.2 0 7.2 -1.3 13.2 -3 11.4 -3.1 16.5 -3.7 16.5 -2 0 0.5 -0.8 1.3 -1.7 1.8 -2.2 1.2 -20.4 5.8 -26 6.7 -3.9 0.6 -4.3 0.5 -4.3 -1.4z"/>
  <path d="M245 345.6 c0 -2.4 1.7 -3.6 5.1 -3.6 1 0 1.9 -0.4 1.9 -1 0 -0.5 1.6 -1 3.5 -1 6.5 0 3.7 2.4 -8.2 7.1 -2 0.7 -2.3 0.5 -2.3 -1.5z"/>
  <path d="M163.2 340.8 c0.3 -0.7 1.9 -1.8 3.6 -2.5 3.1 -1.3 3.2 -1.2 3.2 1.2 0 2.2 -0.4 2.5 -3.6 2.5 -2.3 0 -3.4 -0.4 -3.2 -1.2z"/>
  <path d="M262 337.7 c0 -2.5 3.3 -4.7 7 -4.7 1.1 0 2 -0.7 2 -1.5 0 -0.9 0.9 -1.5 2.5 -1.5 1.6 0 2.5 -0.6 2.5 -1.5 0 -0.8 0.7 -1.5 1.5 -1.5 0.8 0 1.5 -0.4 1.5 -1 0 -0.5 0.9 -1 2 -1 1.1 0 2 -0.7 2 -1.5 0 -1 1 -1.5 3.4 -1.5 3 0 3.5 -0.3 3.8 -2.7 0.3 -2.5 0.8 -2.8 4.2 -3.1 2.5 -0.2 3.6 0 3.1 0.7 -1.8 3.1 -32 23.1 -34.7 23.1 -0.4 0 -0.8 -1.1 -0.8 -2.3z"/>
  <path d="M175 335.2 c0 -0.7 14.3 -9.2 15.5 -9.2 0.3 0 0.5 1.1 0.5 2.5 0 2.2 -0.4 2.5 -3.5 2.5 -2.8 0 -3.5 0.4 -3.5 1.9 0 1 -0.7 2.2 -1.6 2.5 -2.3 0.9 -7.4 0.7 -7.4 -0.2z"/>
  <path fill="url(#lg1)" d="M196 322.2 c6.4 -5.1 19.2 -17.7 25 -24.7 10.6 -13 22.2 -32.7 28.2 -48.2 1.9 -4.9 3.8 -5.6 3.8 -1.4 0 4.1 -2 9.1 -3.6 9.1 -0.9 0 -1.4 1.1 -1.4 3 0 3.7 -4.9 14 -6.7 14 -0.7 0 -1.3 1.1 -1.3 2.5 0 1.6 -0.6 2.5 -1.5 2.5 -0.9 0 -1.5 0.9 -1.5 2.5 0 1.4 -0.4 2.5 -1 2.5 -0.5 0 -1 0.7 -1 1.5 0 0.8 -0.4 1.5 -1 1.5 -0.5 0 -1 0.7 -1 1.5 0 0.8 -0.4 1.5 -1 1.5 -0.5 0 -1 0.7 -1 1.5 0 0.8 -0.9 1.5 -2 1.5 -1.5 0 -2 0.7 -2 2.5 0 1.8 -0.5 2.5 -2 2.5 -1.5 0 -2 0.7 -2 2.5 0 1.6 -0.6 2.5 -1.5 2.5 -0.8 0 -1.5 0.8 -1.5 1.8 0 1 -2.4 4.1 -5.3 7 -4.1 4.1 -5.9 5.2 -8.5 5.2 -2.9 0 -3.2 0.3 -3.2 3 0 2 -0.5 3 -1.5 3 -0.8 0 -1.5 0.5 -1.5 1 0 0.6 -1.7 1 -3.7 0.9 l-3.8 0 3.5 -2.7z"/>
  <path d="M305 305.9 c0 -2.2 0.5 -3.2 2 -3.6 1.1 -0.3 2 -1.2 2 -1.9 0 -0.8 0.7 -1.4 1.5 -1.4 0.8 0 1.5 -0.9 1.5 -2 0 -1.3 0.7 -2 2 -2 1.5 0 2 -0.7 2 -2.5 0 -2 0.5 -2.5 2.5 -2.5 2.1 0 2.5 -0.5 2.5 -3 0 -2.7 0.3 -3 3.1 -3 3.5 0 4.1 -1.1 -6.9 12.7 -4 5 -8.4 9.8 -9.7 10.7 -2.5 1.6 -2.5 1.6 -2.5 -1.5z"/>
  <path d="M86.8 304.9 c-2.9 -1.6 -2.1 -2.9 1.7 -2.9 3.7 0 4.9 2.2 1.9 3.4 -1.9 0.7 -1.5 0.8 -3.6 -0.5z"/>
  <path d="M113.3 304.5 c-0.3 -0.9 -0.4 -1.7 -0.2 -1.8 0.8 -0.6 17.8 -3.7 19.8 -3.7 1.2 0 2.1 0.6 2.1 1.6 0 0.8 -0.4 1.3 -0.9 0.9 -0.5 -0.3 -1.2 -0.1 -1.6 0.4 -0.3 0.6 -1.2 0.8 -1.9 0.5 -0.8 -0.3 -1.7 -0.1 -2 0.4 -0.3 0.6 -1.5 0.8 -2.5 0.5 -1 -0.3 -2.2 0 -2.5 0.6 -0.4 0.6 -2 0.8 -3.6 0.4 -1.9 -0.3 -3 -0.1 -3 0.6 0 1.7 -3 1.3 -3.7 -0.4z"/>
  <path d="M80 304 c0 -0.5 -0.7 -1 -1.5 -1 -0.8 0 -1.5 -0.4 -1.5 -1 0 -0.5 1.6 -1 3.5 -1 3.7 0 4.9 2.2 1.9 3.4 -2.1 0.8 -2.4 0.8 -2.4 -0.4z"/>
  <path d="M68.6 300.9 c0.3 -0.5 -0.2 -0.9 -1 -0.9 -0.8 0 -1.8 -0.4 -2.1 -1 -0.4 -0.6 0.8 -1 2.9 -1 4 0 5.1 2.4 1.6 3.3 -1.1 0.3 -1.8 0.1 -1.4 -0.4z"/>
  <path d="M59.6 297.4 c-0.4 -1 -1.4 -1.4 -2.6 -1.1 -1.1 0.3 -1.8 0.2 -1.5 -0.3 0.3 -0.4 -1.7 -1.7 -4.4 -2.9 -5.7 -2.4 -6.5 -2.6 -5.5 -0.9 0.4 0.7 0.3 0.8 -0.4 0.4 -2.1 -1.3 -1.3 -2.6 1.4 -2.6 1.5 0 5.3 1 8.5 2.1 4.9 1.8 5.9 2.6 5.9 4.5 0 2.8 -0.5 3.1 -1.4 0.8z"/>
  <path d="M146 295.7 c0 -2.6 2 -3.7 7.2 -3.7 2 0 2.6 0.4 2.2 1.5 -0.4 0.8 -1 1.2 -1.5 0.9 -0.5 -0.3 -0.9 0 -0.9 0.7 0 0.7 -0.3 0.9 -0.7 0.6 -0.3 -0.4 -1.2 -0.2 -2 0.4 -0.7 0.6 -1.3 0.8 -1.3 0.4 0 -0.4 -0.7 -0.2 -1.5 0.5 -1.3 1.1 -1.5 0.9 -1.5 -1.3z"/>
  <path d="M165 286 c0 -1.1 0.7 -2 1.5 -2 0.8 0 1.5 -0.4 1.5 -1 0 -0.5 0.7 -1 1.5 -1 0.8 0 1.5 -0.4 1.5 -1 0 -0.5 1.6 -1 3.5 -1 1.9 0 3.5 0.5 3.5 1 0 0.6 -0.3 0.9 -0.7 0.9 -2.1 -0.3 -3.3 0.2 -2.7 1.3 0.4 0.7 0.3 0.8 -0.4 0.4 -0.7 -0.4 -2.2 0.3 -3.5 1.6 -3.2 3.1 -5.7 3.5 -5.7 0.8z"/>
  <path d="M329 275.5 c0 -1.9 0.4 -3.5 0.8 -3.5 0.4 0 1.4 -1.6 2.1 -3.5 0.7 -1.9 1.9 -3.5 2.7 -3.5 0.8 0 1.4 -0.9 1.4 -1.9 0 -3 1.1 -5.1 2.6 -5.1 0.9 0 1.4 -1.2 1.4 -3.5 0 -1.9 0.5 -3.5 1 -3.5 0.6 0 1 -0.6 1 -1.4 0 -0.8 1.8 -6.7 3.9 -13.2 2.2 -6.6 4.5 -14.7 5.2 -18.1 1 -4.9 1.7 -6.3 3.1 -6.3 2.3 0 2.3 1.3 -0.2 11.3 -4.2 16.7 -10.7 33.6 -17.2 45.2 -6.8 12 -7.8 12.9 -7.8 7z"/>
  <path fill="url(#lg3)" d="M181 275.6 c0 -1.6 0.6 -2.6 1.5 -2.6 0.8 0 1.5 0.7 1.5 1.6 0 0.9 0.5 1.2 1.3 0.8 0.7 -0.4 0.9 -0.3 0.4 0.2 -0.5 0.5 -1.2 0.9 -1.5 0.9 -0.4 0 -1.3 0.4 -1.9 0.8 -0.9 0.6 -1.3 0.1 -1.3 -1.7z"/>
  <path fill="url(#lg1)" d="M206 249.8 c0 -3.1 0.3 -3.8 2 -3.8 1.5 0 2 -0.7 2 -2.5 0 -1.6 0.6 -2.5 1.5 -2.5 0.9 0 1.5 -0.9 1.5 -2.5 0 -1.4 0.5 -2.5 1 -2.5 0.6 0 1 -0.7 1 -1.5 0 -0.8 0.7 -1.5 1.5 -1.5 0.8 0 1.5 -0.9 1.5 -2 0 -2.3 5.8 -14.3 7.1 -14.8 0.5 -0.2 0.9 -1.5 0.9 -2.8 0 -1.9 0.5 -2.4 2.5 -2.4 l2.5 0 -2 5 c-4.2 10.5 -13.5 26.5 -19.5 33.5 l-3.4 4 -0.1 -3.7z"/>
  <path fill="url(#lg1)" d="M252.3 240.8 c0.9 -4.2 4.7 -24.3 5.2 -28 0.8 -4.9 3.5 -5.3 3.5 -0.5 0 4.2 -1.6 14.4 -3.7 23.5 -1.4 5.9 -2 7.2 -3.6 7.2 -1.5 0 -1.8 -0.5 -1.4 -2.2z"/>
  <path d="M148.2 218.8 c0.3 -0.7 1.9 -1.8 3.6 -2.5 3.1 -1.3 3.2 -1.2 3.2 1.2 0 2.2 -0.4 2.5 -3.6 2.5 -2.3 0 -3.4 -0.4 -3.2 -1.2z"/>
  <path d="M354 203.5 c0 -2.8 0.4 -3.5 2 -3.5 2.1 0 2.4 1 1.4 4.8 -1 3.6 -3.4 2.7 -3.4 -1.3z"/>
  <path fill="url(#lg1)" d="M231 200.6 c0 -2 0.5 -3.6 1 -3.6 0.6 0 1 -1.6 1 -3.5 0 -2.8 0.4 -3.5 2 -3.5 2.4 0 2.5 1.7 0.2 8.4 -2.1 6.1 -4.2 7.2 -4.2 2.2z"/>
  <path d="M355 184 c0 -8.7 0.3 -11 1.4 -11 1.8 0 2.6 3.2 2.6 11 0 7.8 -0.8 11 -2.6 11 -1.1 0 -1.4 -2.3 -1.4 -11z"/>
  <path fill="url(#lg2)" d="M257.6 185.8 c-2.9 -20.1 -4.2 -26.9 -6.7 -36.7 -3.3 -12.8 -3.5 -16 -1.5 -26.3 3.6 -18.7 13.3 -37.8 25.1 -49.3 9 -8.9 25.8 -15.9 32.1 -13.5 3.2 1.3 21 23.4 28.1 35 11.1 18.2 19.3 42.7 22.8 68.3 0.6 4.3 0.4 4.7 -1.4 4.7 -1.7 0 -2.1 -0.7 -2.2 -3.2 -0.1 -3.8 -1.6 -9.3 -1.8 -6.5 -0.1 1.3 -1 1.7 -3.6 1.7 -2.6 0 -4.7 -1.1 -8.7 -4.5 -2.9 -2.4 -9.3 -6.7 -14.2 -9.5 l-8.8 -5.1 -7.2 0.6 c-8.2 0.7 -37.5 -3.6 -41.4 -6.1 -3.5 -2.3 -6.2 -7.5 -6.2 -12 0 -4 -1.8 -9.4 -3.2 -9.4 -0.5 0 -0.8 1.4 -0.8 3 0 2 -0.5 3 -1.5 3 -1 0 -1.5 1.1 -1.5 3.5 0 1.9 -0.4 3.5 -0.9 3.5 -0.5 0 -1.1 2.2 -1.5 4.9 -0.5 3.6 0.1 7.9 2.4 17.2 3.1 13 6 30.4 6 36.4 0 4.6 -2.7 4.8 -3.4 0.3z"/>
  <path d="M186 174.2 c0 -0.8 5.2 -4.2 6.4 -4.2 0.3 0 0.6 1.1 0.6 2.5 0 2.2 -0.4 2.5 -3.5 2.5 -1.9 0 -3.5 -0.4 -3.5 -0.8z"/>
  <path d="M105 147.5 c0 -2.8 0.4 -3.5 2 -3.5 2.1 0 2.4 1 1.4 4.8 -1 3.6 -3.4 2.7 -3.4 -1.3z"/>
  <path d="M110 131.5 c0 -2.4 0.5 -3.5 1.5 -3.5 1 0 1.5 -1.1 1.5 -3.5 0 -3.1 0.3 -3.5 2.5 -3.5 2.1 0 2.3 0.3 1.6 2.3 -4.7 11.9 -7.1 14.7 -7.1 8.2z"/>
  <path d="M133 94.7 c0 -3.3 0.3 -3.7 2.5 -3.7 2.1 0 2.5 -0.5 2.5 -3 0 -3.3 1.4 -4.3 5.3 -3.8 2.3 0.3 2.1 0.7 -3.9 7.3 l-6.4 6.9 0 -3.7z"/>
  <path d="M157 74 c0 -1.3 1 -2.4 2.6 -3 5.5 -2.1 6 -0.5 0.9 2.8 -3.4 2.2 -3.5 2.2 -3.5 0.2z"/>
 </g>
 <g fill="#6813ff">
  <path fill="url(#lg3)" d="M86.8 304.7 c-1.2 -0.4 -2.9 -0.7 -3.7 -0.6 -0.9 0.1 -2.4 -0.1 -3.3 -0.6 -1 -0.4 -2.5 -0.5 -3.3 -0.1 -0.8 0.3 -1.5 0.2 -1.5 -0.3 0 -0.7 -11.3 -4.6 -13.5 -4.6 -0.5 0 -1.5 -0.6 -2.1 -1.3 -0.5 -0.8 -2.2 -1.5 -3.6 -1.5 -1.4 -0.1 -2.4 -0.5 -2.2 -0.8 0.2 -0.4 -1.4 -1.4 -3.6 -2.3 -4.9 -1.9 -5.3 -2 -4.4 -0.3 0.4 0.6 -0.6 -0.1 -2.2 -1.8 -1.7 -1.6 -3 -3.2 -3 -3.5 0.2 -1.3 -3.2 -4.9 -3.9 -4.2 -0.5 0.4 -0.5 0.2 -0.2 -0.4 0.3 -0.6 -0.9 -2.7 -2.7 -4.7 -1.9 -2.1 -3.2 -3.7 -3 -3.7 0.2 0 -1.2 -2.8 -3.1 -6.2 -10.3 -18.2 -17 -35.2 -20.4 -51.4 -2.7 -13.1 -5 -33.3 -4.6 -41.4 0.6 -13 3.4 -33.2 4.5 -32.5 0.4 0.3 1 -0.2 1.3 -0.9 0.3 -0.8 0.1 -1.6 -0.5 -1.8 -1.4 -0.5 -0.1 -2.8 1.5 -2.8 0.7 0 0.6 0.4 -0.3 1 -1.3 0.8 -1.2 1 0.3 1 0.9 0 1.7 0.8 1.7 1.8 0.1 1.6 0.1 1.6 1.1 -0.1 0.6 -0.9 1.4 -1.5 2 -1.2 0.5 0.4 0.9 0.1 0.9 -0.5 0 -1.3 1.4 -3.1 5.3 -7 1.5 -1.6 4.2 -5.4 6 -8.7 3 -5.3 3.8 -6 9.2 -7.9 3.2 -1.1 6.6 -3.1 7.6 -4.2 1.2 -1.6 2.9 -2.2 5.6 -2.2 2.1 -0.1 6.2 -1.1 9.1 -2.4 4.5 -1.9 6 -2.1 9.2 -1.3 3.7 1 3.9 0.9 9 -4.1 8.1 -7.9 22.5 -14.5 24.5 -11.2 0.4 0.7 1.8 0.4 3.9 -0.8 3 -1.8 3.4 -1.8 4.4 -0.3 1 1.4 1.4 1.3 3.6 -1.2 3.5 -3.8 8.2 -4.7 10.2 -1.9 1.2 1.8 1.9 2 4 1.2 1.7 -0.7 2.3 -0.7 1.9 0 -1 1.6 1.8 1.2 4.5 -0.7 1.6 -1 1.1 -0.1 -1.5 2.7 l-4 4.4 5.3 -4.5 c13 -10.8 20.5 -15.9 26.8 -17.9 3.5 -1.2 6.6 -2.6 6.9 -3.1 1 -1.5 2.5 -1 1.8 0.6 -0.3 0.9 -0.8 1.4 -1 1.1 -0.3 -0.3 -1 -0.1 -1.7 0.5 -0.6 0.5 -4.5 3.2 -8.6 5.9 -10.8 7.2 -28.4 23.9 -36.6 34.7 -9.4 12.4 -15.6 23.9 -20.7 38.6 l-4.2 12.2 0.1 15 c0.1 12.9 0.4 16.4 2.7 24.9 2.8 10.5 7.7 21 13.3 28.9 1.9 2.6 3.4 5 3.4 5.5 0 0.4 0.9 1.3 2 2 1.1 0.7 2 2.3 2 3.5 0 2.6 4.8 7.7 7.2 7.7 0.9 0 4.9 2.2 8.9 5 8.1 5.6 20.7 10.8 28 11.7 3.2 0.4 4.9 1.1 4.9 1.9 0 0.9 1.2 1.4 3.5 1.4 2.4 0 3.5 -0.5 3.5 -1.5 0 -0.8 0.8 -1.5 1.8 -1.5 0.9 0 4.4 -1.1 7.7 -2.5 6.5 -2.6 14 -3.4 13.3 -1.3 -0.3 0.7 -3.8 2.6 -7.9 4.2 -8.6 3.4 -21.6 4.5 -31.2 2.7 -12.7 -2.3 -25.4 -9.1 -36.4 -19.5 -12.5 -11.8 -20.3 -23.5 -25.8 -39.1 -2.3 -6.4 -2.5 -6.6 -2 -2.5 2 15.2 19.6 39.8 36.5 50.7 3.6 2.3 11 6.1 16.5 8.5 9.6 4 10.5 4.2 22.8 4.6 14.8 0.5 16.2 1.3 10.4 6.5 -1.9 1.8 -4.1 3.3 -4.9 3.5 -0.7 0.2 -2.6 1.4 -4.3 2.6 -1.6 1.3 -5.9 3.8 -9.5 5.6 -3.6 1.8 -6.8 3.7 -7.1 4.2 -0.3 0.5 -0.9 0.9 -1.3 0.8 -0.4 -0.1 -2 0.3 -3.6 0.9 -1.7 0.5 -3.4 1.1 -3.8 1.1 -0.4 0.1 -1.3 0.6 -1.9 1.2 -0.7 0.6 -1.3 0.7 -1.3 0.3 0 -0.4 -0.7 -0.2 -1.5 0.5 -0.8 0.7 -1.5 0.9 -1.5 0.5 0 -0.4 -0.7 -0.2 -1.5 0.5 -0.8 0.7 -1.5 0.9 -1.5 0.5 0 -0.4 -0.7 -0.2 -1.5 0.5 -0.8 0.7 -1.5 1 -1.5 0.8 0 -0.3 -2.6 0.1 -5.7 0.9 -3.2 0.8 -6.9 1.4 -8.2 1.4 -1.2 -0.1 -2.7 0.2 -3.3 0.5 -1.5 0.9 -27.6 1 -30 0.1z m10.6 -198.2 c2 -3 2 -4.5 0.1 -4.5 -0.8 0 -1.5 0.1 -1.5 0.3 0 0.1 -0.4 1.7 -0.9 3.5 -1.1 3.8 0 4.2 2.3 0.7z"/>
 </g>
 <g fill="#0886d8">
  <path d="M193 357 c0 -1.6 0.7 -2 3.5 -2 4 0 4.9 2.4 1.3 3.4 -3.8 1 -4.8 0.7 -4.8 -1.4z"/>
  <path d="M202 356 c0 -1.6 0.7 -2 3.5 -2 4 0 4.9 2.4 1.3 3.4 -3.8 1 -4.8 0.7 -4.8 -1.4z"/>
  <path d="M141.8 355.3 c-3.3 -0.8 -2 -3.3 1.7 -3.3 2.8 0 3.5 0.4 3.5 2 0 2 -1.4 2.3 -5.2 1.3z"/>
  <path d="M214 354 c0 -1.6 0.7 -2 3.5 -2 4 0 4.9 2.4 1.3 3.4 -3.8 1 -4.8 0.7 -4.8 -1.4z"/>
  <path d="M236 348.6 c0 -1.8 0.8 -2.5 3.9 -3.4 2.1 -0.7 5.1 -1.2 6.5 -1.2 4.6 0 2.5 2.3 -4.2 4.7 l-6.2 2.2 0 -2.3z"/>
  <path d="M254 341.7 c0 -1.7 1 -2.8 3.5 -4 3.7 -1.8 9.5 -2.3 9.5 -0.9 0 0.9 -6 4.5 -10.3 6.1 -2.4 1 -2.7 0.8 -2.7 -1.2z"/>
  <path d="M179 333.2 c0 -0.8 5.2 -4.2 6.4 -4.2 0.3 0 0.6 1.1 0.6 2.5 0 2.2 -0.4 2.5 -3.5 2.5 -1.9 0 -3.5 -0.4 -3.5 -0.8z"/>
  <path d="M274 330.5 c0 -1.6 0.6 -2.5 1.5 -2.5 0.8 0 1.5 -0.4 1.5 -1 0 -0.5 0.7 -1 1.5 -1 0.8 0 1.5 -0.4 1.5 -1 0 -0.5 1.6 -1 3.5 -1 3.1 0 3.5 -0.3 3.5 -2.5 0 -2.1 0.5 -2.5 3 -2.5 2.5 0 3 -0.4 3 -2.5 0 -2.2 0.4 -2.5 3.8 -2.5 l3.7 0.1 -4 3.5 c-4.7 4.2 -20.5 15.4 -21.7 15.4 -0.4 0 -0.8 -1.1 -0.8 -2.5z"/>
  <path d="M202.5 317 c0.3 -0.5 1.9 -1.9 3.5 -3 l3 -2.1 0 3 c0 2.9 -0.3 3.1 -3.6 3.1 -2 0 -3.3 -0.4 -2.9 -1z"/>
  <path d="M307.2 303.9 c0.3 -3 0.7 -3.4 3.7 -3.7 3.2 -0.3 3.3 -0.3 1.8 1.8 -0.8 1.2 -2.5 2.9 -3.7 3.7 -2.1 1.5 -2.1 1.4 -1.8 -1.8z"/>
  <path d="M219.9 299.3 c1.1 -1.6 3.3 -4.4 5 -6.3 l3 -3.5 0.1 3.8 c0 3 -0.3 3.7 -2 3.7 -1.5 0 -2 0.7 -2 2.5 0 2.1 -0.5 2.5 -3.1 2.5 l-3 0 2 -2.7z"/>
  <path d="M330 273.5 c0 -2.8 0.4 -3.5 2 -3.5 1.6 0 2 -0.7 2 -3.5 0 -2.4 0.5 -3.5 1.5 -3.5 0.9 0 1.5 -0.9 1.5 -2.5 0 -2.8 2 -7.5 3.2 -7.5 0.4 0 0.8 -1.1 0.8 -2.5 0 -1.4 0.5 -2.5 1 -2.5 0.6 0 1 -1.1 1 -2.5 0 -2 0.5 -2.5 2.5 -2.5 l2.5 0 -2.1 5.3 c-1.2 2.8 -2.5 6.3 -3.1 7.7 -1.7 4.5 -11.1 21 -12 21 -0.4 0 -0.8 -1.6 -0.8 -3.5z"/>
  <path d="M245.3 258.8 c1.9 -4.6 3.7 -4.8 3.7 -0.4 0 3.2 -0.3 3.6 -2.5 3.6 -2.4 0 -2.5 -0.1 -1.2 -3.2z"/>
  <path d="M202 254.6 c0 -2.5 0.4 -3.6 1.5 -3.6 0.8 0 1.5 -0.9 1.5 -2 0 -1.6 0.7 -2 3.1 -2 l3 0 -3.2 4.5 c-5 6.9 -5.9 7.4 -5.9 3.1z"/>
  <path d="M252.3 240 c2.3 -7.6 4.7 -9.4 4.7 -3.5 0 1.9 -0.4 3.5 -1 3.5 -0.5 0 -1 1.6 -1 3.5 0 3 -0.3 3.5 -2.4 3.5 l-2.3 0 2 -7z"/>
  <path d="M347 235.3 c0 -4.8 1.1 -7.3 3.1 -7.3 2.2 0 2.3 0.9 0.7 6.1 -1.3 4.5 -3.8 5.3 -3.8 1.2z"/>
  <path d="M257 217.8 c0 -3 1.3 -5.8 2.6 -5.8 0.9 0 1.4 1.2 1.4 3.5 0 2.8 -0.4 3.5 -2 3.5 -1.1 0 -2 -0.6 -2 -1.2z"/>
  <path d="M155 216 c0 -0.8 5.1 -4 6.5 -4 0.3 0 0.5 1.1 0.5 2.5 0 2.2 -0.4 2.5 -3.5 2.5 -1.9 0 -3.5 -0.4 -3.5 -1z"/>
  <path d="M353 210.5 c0 -2.8 0.4 -3.5 2 -3.5 2.1 0 2.4 1 1.4 4.8 -1 3.6 -3.4 2.7 -3.4 -1.3z"/>
  <path d="M353.6 201.4 c-1 -7.7 -0.9 -8.4 1.9 -8.4 2.3 0 2.5 0.4 2.5 4.3 0 9.2 -3.2 12.2 -4.4 4.1z"/>
  <path fill="url(#lg2)" d="M355 188 c0 -1.3 -0.7 -2 -2 -2 -1.8 0 -5.7 -1.7 -14.6 -6.4 -9.4 -4.9 -16.9 -6.7 -31.6 -7.7 -10.9 -0.7 -16.7 -1.6 -22.3 -3.4 -4.2 -1.4 -8.5 -2.5 -9.6 -2.5 -2.4 0 -7.9 2.7 -7.9 3.9 0 0.4 -1.1 2.1 -2.5 3.7 -1.4 1.6 -2.5 3.8 -2.5 4.9 0 3.6 -1.2 6.5 -2.6 6.5 -1.3 0 -1.6 -1 -3.4 -13.5 -0.6 -3.8 -2.7 -13.7 -4.6 -21.9 -2.2 -9.4 -3.3 -15.8 -2.9 -17.5 0.4 -1.4 0.9 -4.6 1.1 -7.1 0.2 -2.5 0.8 -4.6 1.4 -4.8 0.6 -0.2 0.8 -0.8 0.5 -1.2 -0.8 -1.3 0.6 -6.1 1.6 -5.4 0.5 0.3 0.6 -0.2 0.3 -1 -0.3 -0.8 -0.1 -2.3 0.5 -3.3 0.6 -1.1 1.1 -1.3 1.1 -0.5 0 0.7 0.4 1.1 0.9 0.7 0.5 -0.3 1.2 -0.1 1.6 0.5 0.3 0.5 1.7 1 3.1 1 1.3 0 2.4 0.6 2.4 1.3 0 0.8 0.9 2.2 2 3.2 2.3 2.1 2.5 3.7 0.8 6.4 -0.9 1.5 -0.7 2.5 0.8 5.1 3.3 5.7 5.8 6.8 22.5 9.5 13.1 2.1 16.6 2.3 21.3 1.4 3.1 -0.5 6.7 -0.7 7.9 -0.3 4.2 1.3 18.2 9.7 22.7 13.6 2.5 2.2 5.4 4.5 6.4 5 1.6 0.9 1.8 0.7 1.3 -1.1 -0.4 -1.6 -0.1 -2.1 1.1 -1.9 1 0.2 1.6 -0.3 1.4 -1 -0.1 -0.7 0.5 -1.5 1.3 -1.8 0.8 -0.3 1.2 -1 0.9 -1.5 -0.3 -0.5 -0.1 -0.9 0.4 -0.9 2 0 5.9 34.2 4.5 39.8 -0.6 2.7 -3.3 2.9 -3.3 0.2z"/>
  <path fill="url(#lg0)" d="M178 181 c1.1 -1.6 3.4 -3.9 5 -5 l3 -2.1 0 3 c0 2.4 -0.4 3.1 -2 3.1 -1.3 0 -2 0.7 -2 2 0 1.6 -0.7 2 -3.1 2 l-3 0 2.1 -3z"/>
  <path d="M188 173.2 c0 -0.7 1.7 -1.8 6.3 -4 0.4 -0.2 0.7 0.8 0.7 2.2 0 2.3 -0.4 2.6 -3.5 2.6 -1.9 0 -3.5 -0.4 -3.5 -0.8z"/>
  <path d="M104 151.5 c0 -2.8 0.4 -3.5 2 -3.5 2.1 0 2.4 1 1.4 4.8 -1 3.6 -3.4 2.7 -3.4 -1.3z"/>
  <path d="M352.7 144.3 c-0.4 -1.8 -0.9 -4.8 -1.2 -6.5 -0.3 -2.6 -0.1 -2.3 1.1 1.2 0.8 2.5 1.3 5.4 1.1 6.5 -0.2 1.4 -0.5 1.1 -1 -1.2z"/>
  <path d="M348.1 127.9 c-1.1 -3.4 -1.9 -6.4 -1.7 -6.6 0.2 -0.2 1.3 2.4 2.5 5.8 1.1 3.4 1.9 6.4 1.7 6.6 -0.2 0.2 -1.3 -2.4 -2.5 -5.8z"/>
  <path d="M112 126.6 c0 -3.2 0.3 -3.6 2.5 -3.6 2.4 0 2.5 0.1 1.2 3.2 -1.9 4.6 -3.7 4.8 -3.7 0.4z"/>
  <path d="M118 114.5 c0 -1.9 0.5 -3.5 1 -3.5 0.6 0 1 -0.7 1 -1.5 0 -0.8 0.9 -1.5 2 -1.5 1.6 0 2 -0.7 2 -3 0 -2.7 0.3 -3 3 -3 l2.9 0 -5.2 8 c-2.9 4.4 -5.5 8 -5.9 8 -0.5 0 -0.8 -1.6 -0.8 -3.5z"/>
  <path d="M340.2 107.8 c-1.4 -1.8 -6.6 -12.5 -5.5 -11.3 0.5 0.6 2.4 3.6 4.1 6.8 3.1 5.4 3.6 7.1 1.4 4.5z"/>
  <path d="M327.3 86.3 c-8.8 -12.3 -19 -23.6 -22.7 -25 -2.9 -1.1 -3 -1.2 -0.6 -1.2 2.7 -0.1 7.5 4.3 16.2 14.9 5.2 6.4 14.5 20 13.6 20 -0.2 0 -3.1 -3.9 -6.5 -8.7z"/>
  <path d="M140 86.9 c0 -3.2 1.5 -4.3 5 -3.7 2 0.3 1.9 0.5 -1.4 3.5 l-3.6 3.1 0 -2.9z"/>
  <path d="M151 78.1 c0 -1.4 1.3 -2.7 4 -4.1 7.5 -3.8 7.8 -2 0.4 3 -4.1 2.9 -4.4 3 -4.4 1.1z"/>
 </g>
 <g fill="#097cd2">
  <path d="M163.8 358.3 c-3.3 -0.8 -2 -3.3 1.7 -3.3 2.8 0 3.5 0.4 3.5 2 0 2 -1.4 2.3 -5.2 1.3z"/>
  <path d="M192 357 c0 -1.6 0.7 -2 3.5 -2 4 0 4.9 2.4 1.3 3.4 -3.8 1 -4.8 0.7 -4.8 -1.4z"/>
  <path d="M154.8 357.3 c-3.3 -0.8 -2 -3.3 1.7 -3.3 2.8 0 3.5 0.4 3.5 2 0 2 -1.4 2.3 -5.2 1.3z"/>
  <path d="M131.1 352.4 c-6.4 -2 -7.4 -3.4 -2.4 -3.4 2.2 0 5.5 -0.3 7.2 -0.6 2.9 -0.6 3.1 -0.5 3.1 2.5 0 3.5 -0.9 3.7 -7.9 1.5z"/>
  <path d="M226 351 c0 -1.6 0.7 -2 3.5 -2 1.9 0 3.5 -0.4 3.5 -1 0 -0.5 1.6 -1 3.6 -1 5 0 3.9 2.1 -2.2 4.2 -6.7 2.3 -8.4 2.2 -8.4 -0.2z"/>
  <path d="M244 345.5 c0 -2 0.5 -2.5 2.5 -2.5 1.4 0 2.5 -0.4 2.5 -1 0 -0.5 1.6 -1 3.5 -1 1.9 0 3.5 0.4 3.5 0.9 0 1.2 -0.5 1.5 -6.8 4 l-5.2 2.1 0 -2.5z"/>
  <path d="M156 344.1 c0 -1.2 0.5 -1.5 6.8 -4 l5.2 -2.1 0 2.5 c0 2 -0.5 2.5 -2.5 2.5 -1.4 0 -2.5 0.5 -2.5 1 0 0.6 -1.6 1 -3.5 1 -1.9 0 -3.5 -0.4 -3.5 -0.9z"/>
  <path d="M263 336.6 c0 -1.9 0.9 -2.8 4.5 -4.3 2.5 -1 4.5 -2.1 4.5 -2.5 0 -0.5 1.6 -0.8 3.5 -0.8 1.9 0 3.5 0.3 3.5 0.8 0 1.1 -13.6 9.2 -15.5 9.2 -0.3 0 -0.5 -1.1 -0.5 -2.4z"/>
  <path d="M181 332.3 c0 -0.5 4.1 -3.4 9 -6.5 l9 -5.7 0 2.9 c0 2 -0.5 3 -1.5 3 -0.8 0 -1.5 0.5 -1.5 1 0 0.6 -0.7 1 -1.5 1 -0.8 0 -1.5 0.5 -1.5 1 0 0.6 -1.1 1 -2.5 1 -1.6 0 -2.5 0.6 -2.5 1.5 0 1 -1.1 1.5 -3.5 1.5 -1.9 0 -3.5 -0.3 -3.5 -0.7z"/>
  <path d="M284 324.1 c0 -2.9 0.3 -3.1 3.6 -3.1 3.9 0 3.8 0.9 -0.6 4 l-3 2.1 0 -3z"/>
  <path d="M292 318.6 c0 -4 3.7 -7.6 7.9 -7.6 l3.6 0 -4 3.8 c-7.1 6.6 -7.5 6.8 -7.5 3.8z"/>
  <path d="M201.5 318 c0.3 -0.5 1.9 -1.9 3.5 -3 l3 -2.1 0 3 c0 2.9 -0.3 3.1 -3.6 3.1 -2 0 -3.3 -0.4 -2.9 -1z"/>
  <path d="M217 303 c3.1 -4.4 4 -4.5 4 -0.6 0 3.3 -0.2 3.6 -3.1 3.6 l-3 0 2.1 -3z"/>
  <path fill="url(#lg2)" d="M310.2 300.5 c0.2 -3.3 0.7 -4.1 2.6 -4.3 1.6 -0.3 2.2 -1 2.2 -2.8 0 -1.9 0.5 -2.4 2.5 -2.4 2.1 0 2.5 -0.5 2.5 -3 0 -1.8 1 -3.9 2.5 -5.4 1.4 -1.4 2.5 -3 2.5 -3.6 0 -0.5 0.4 -1 0.9 -1 0.5 0 1.2 -1.9 1.5 -4.3 0.4 -2.3 2.7 -7.8 5.1 -12.1 2.5 -4.3 4.5 -8.4 4.5 -9.1 0 -0.7 0.5 -1.5 1 -1.7 1.3 -0.4 -4.4 -11.7 -8.1 -16.1 -2.3 -2.7 -3.1 -3.1 -7.3 -2.8 -3.4 0.1 -4.8 -0.2 -5.2 -1.4 -0.3 -0.8 -1.1 -1.5 -1.6 -1.5 -1.6 0 -3.7 -3.2 -3.8 -5.7 0 -2 -0.5 -2.3 -3.7 -2.3 -7.3 -0.1 -19.7 -4.3 -32.4 -11.1 -2 -1 -4.1 -1.9 -4.6 -1.9 -0.4 0 -1.9 1.8 -3.3 4 -1.4 2.2 -3.3 4.3 -4.2 4.6 -1.1 0.3 -1.8 1.5 -1.8 3 0 1.3 -0.4 2.4 -0.9 2.4 -0.5 0 -1.5 3.2 -2.1 7 -1 6 -1.5 7 -3.2 7 -1.8 0 -2 -0.4 -1.4 -3.2 3.4 -15.9 3.8 -20.8 3.2 -38.8 -0.3 -10.2 -0.7 -20.1 -0.9 -22 -0.3 -1.9 -0.2 -2.4 0 -1.1 0.4 1.9 0.7 2.1 1.4 1 0.7 -1.2 0.9 -1.2 0.9 0.1 0 1 0.9 0.5 2.5 -1.4 1.4 -1.6 2.5 -3.3 2.5 -3.7 0 -1.7 6.1 -3.9 10.9 -3.9 2.8 0 8.5 1.1 12.7 2.5 5.5 1.8 10.7 2.6 18.8 3 13.7 0.6 16.5 1.1 24.1 3.7 5.7 1.9 7.7 2.8 18.5 8.3 3.6 1.8 4.6 2 4.8 0.9 0.5 -2 1.9 -1.7 2.6 0.4 0.3 0.9 0.4 -3.7 0.2 -10.3 -0.2 -9.1 -0.1 -11 0.6 -8 1.7 7 0.3 43.8 -2 53.6 -7 29.8 -18.4 54.7 -34 74.2 -4 5.1 -8.2 10.1 -9.3 11.2 -2 2 -2 2 -1.7 -2z"/>
  <path d="M234.3 279 c3.4 -5.5 6.5 -10 7 -10 0.4 0 0.7 1.6 0.7 3.5 0 2.4 -0.5 3.5 -1.5 3.5 -0.9 0 -1.5 0.9 -1.5 2.5 0 1.6 -0.6 2.5 -1.5 2.5 -0.9 0 -1.5 0.9 -1.5 2.5 0 1.4 -0.4 2.5 -1 2.5 -0.5 0 -1 0.7 -1 1.5 0 1 -1 1.5 -2.9 1.5 l-2.9 0 6.1 -10z"/>
  <path d="M246.6 256.3 c0.9 -2.1 2.8 -7.3 4.3 -11.5 2.8 -8.3 5.1 -10.2 5.1 -4.3 0 1.9 -0.4 3.5 -0.9 3.5 -0.4 0 -1.1 1.9 -1.4 4.2 -0.3 2.4 -1.1 4.4 -1.6 4.6 -0.6 0.2 -1.1 1.2 -1.1 2.2 0 3.4 -1.2 5 -3.6 5 -2.4 0 -2.4 0 -0.8 -3.7z"/>
  <path d="M209 245.6 c0 -3.3 0.2 -3.6 3.1 -3.6 l3 0 -2.1 3 c-3.1 4.4 -4 4.5 -4 0.6z"/>
  <path d="M216 234.5 c0 -3.1 0.3 -3.5 2.5 -3.5 3 0 3 0.3 0.8 4.1 -2.3 3.8 -3.3 3.7 -3.3 -0.6z"/>
  <path d="M227 211.6 c0 -3.2 0.3 -3.6 2.5 -3.6 2.4 0 2.5 0.1 1.2 3.2 -1.9 4.6 -3.7 4.8 -3.7 0.4z"/>
  <path d="M111 201.5 c0 -4.4 0.9 -4.4 3.8 0 l2.2 3.5 -3 0 c-2.8 0 -3 -0.3 -3 -3.5z"/>
  <path d="M232 196.5 c0 -2.8 0.4 -3.5 2 -3.5 2.1 0 2.4 1 1.4 4.8 -1 3.6 -3.4 2.7 -3.4 -1.3z"/>
  <path fill="url(#lg1)" d="M234 188.5 c0 -2.8 0.4 -3.5 2 -3.5 2.1 0 2.4 1 1.4 4.8 -1 3.6 -3.4 2.7 -3.4 -1.3z"/>
  <path d="M103 179.5 c0 -4 2.4 -4.9 3.4 -1.2 1 3.7 0.7 4.7 -1.4 4.7 -1.6 0 -2 -0.7 -2 -3.5z"/>
  <path d="M179 180.1 c0 -0.5 1.4 -1.9 3 -3.1 l3 -2.1 0 3 c0 2.8 -0.3 3.1 -3 3.1 -1.6 0 -3 -0.4 -3 -0.9z"/>
  <path d="M103 159.5 c0 -2.8 0.4 -3.5 2 -3.5 2.1 0 2.4 1 1.4 4.8 -1 3.6 -3.4 2.7 -3.4 -1.3z"/>
  <path d="M105 147.3 c0 -1.5 0.7 -5.3 1.6 -8.5 1.4 -4.8 2 -5.8 3.9 -5.8 l2.2 0 -2.6 8.5 c-2.5 8.3 -5.1 11.3 -5.1 5.8z"/>
  <path d="M250.5 146 c-0.4 -1.7 -0.5 -3.4 -0.2 -3.6 0.2 -0.3 0.7 1 1.1 2.7 0.8 4.2 0 5 -0.9 0.9z"/>
  <path d="M127 101.5 c0 -3.1 0.3 -3.5 2.5 -3.5 2.1 0 2.5 -0.5 2.5 -3 0 -2.5 0.4 -3 2.5 -3 2.1 0 2.5 -0.5 2.5 -3 0 -2.3 0.5 -3 1.9 -3 1 0 2.1 -0.9 2.4 -2 0.4 -1.5 1.4 -2 3.9 -2 l3.3 0 -4 3.8 c-2.2 2 -6.9 7.2 -10.4 11.5 -3.5 4.2 -6.5 7.7 -6.7 7.7 -0.2 0 -0.4 -1.6 -0.4 -3.5z"/>
  <path d="M321.9 78.8 c-6.7 -8.6 -13.5 -16 -15.9 -17.3 -1.8 -1 -2 -1.4 -0.8 -1.5 1.7 0 12.2 11 17.9 18.9 4 5.4 3 5.3 -1.2 -0.1z"/>
 </g>
 <g fill="#0b73cb">
  <path d="M164.8 358.3 c-3.3 -0.8 -2 -3.3 1.7 -3.3 2.8 0 3.5 0.4 3.5 2 0 2 -1.4 2.3 -5.2 1.3z"/>
  <path d="M155.8 357.3 c-3.3 -0.8 -2 -3.3 1.7 -3.3 2.8 0 3.5 0.4 3.5 2 0 2 -1.4 2.3 -5.2 1.3z"/>
  <path d="M201 356.1 c0 -1.3 0.6 -2.1 1.8 -2.1 0.9 0 4.1 -0.3 7 -0.6 4.3 -0.6 5.2 -0.4 5.2 0.9 0 1.5 -1.2 2 -9.7 3.2 -3.9 0.6 -4.3 0.5 -4.3 -1.4z"/>
  <path d="M147.8 356.3 c-3.3 -0.8 -2 -3.3 1.7 -3.3 2.8 0 3.5 0.4 3.5 2 0 2 -1.4 2.3 -5.2 1.3z"/>
  <path d="M137.7 354.3 c-1.4 -0.4 -1.7 -1.1 -1.3 -2.6 0.3 -1.2 0.6 -2.5 0.6 -2.8 0 -0.6 7.8 -2.9 9.9 -2.9 2.2 0 1.1 3.9 -1.1 4.2 -1.5 0.2 -2.4 1.1 -2.6 2.6 -0.3 2.2 -1.6 2.5 -5.5 1.5z"/>
  <path d="M238 347.5 c0 -2.1 0.6 -2.6 4 -3.1 2.2 -0.4 4 -1 4 -1.5 0 -0.5 0.9 -0.9 2.1 -0.9 1.1 0 2.7 -0.7 3.5 -1.5 1.7 -1.7 8.4 -2.1 8.4 -0.4 0 1 -6.2 4 -16.2 7.7 l-5.8 2.2 0 -2.5z"/>
  <path d="M168 339 c0 -0.8 5.1 -4 6.5 -4 0.3 0 0.5 1.1 0.5 2.5 0 2.2 -0.4 2.5 -3.5 2.5 -1.9 0 -3.5 -0.4 -3.5 -1z"/>
  <path d="M261 337.5 c0 -2.2 0.4 -2.5 3.5 -2.5 4.3 0 4.4 1 0.6 3.3 -3.8 2.2 -4.1 2.2 -4.1 -0.8z"/>
  <path d="M275 329.5 c0 -1.6 0.6 -2.5 1.5 -2.5 0.8 0 1.5 -0.4 1.5 -1 0 -0.5 0.7 -1 1.5 -1 0.8 0 1.5 -0.4 1.5 -1 0 -0.5 0.9 -1 2 -1 1.1 0 2 -0.7 2 -1.5 0 -0.8 0.7 -1.5 1.5 -1.5 0.8 0 1.5 -0.4 1.5 -1 0 -0.5 1.6 -1 3.6 -1 2 0 3.3 0.4 2.9 1 -0.8 1.3 -17.6 13 -18.7 13 -0.4 0 -0.8 -1.1 -0.8 -2.5z"/>
  <path d="M200.5 319 c0.3 -0.5 1.9 -1.9 3.5 -3 l3 -2.1 0 3 c0 2.9 -0.3 3.1 -3.6 3.1 -2 0 -3.3 -0.4 -2.9 -1z"/>
  <path d="M297.2 312.9 c0.3 -3.2 0.6 -3.4 4.2 -3.7 3.6 -0.3 3.8 -0.2 2.6 1.3 -0.7 0.9 -2.6 2.5 -4.2 3.7 l-2.9 2 0.3 -3.3z"/>
  <path d="M219.7 299.8 c0.6 -0.7 3.4 -4.3 6.2 -8 2.9 -3.8 5.5 -6.8 5.7 -6.8 0.2 0 0.4 1.6 0.4 3.5 0 2.4 -0.5 3.5 -1.5 3.5 -0.8 0 -1.5 0.9 -1.5 2 0 1.3 -0.7 2 -2 2 -1.5 0 -2 0.7 -2 2.5 0 2.1 -0.5 2.5 -3.1 2.5 -2.4 0 -2.9 -0.3 -2.2 -1.2z"/>
  <path fill="url(#lg2)" d="M313 296.9 c0 -4.5 2.1 -12 4.1 -15 1 -1.4 2.1 -3.8 2.5 -5.5 0.4 -1.6 1.3 -3.8 2 -4.9 1.8 -2.6 1.8 -5.1 -0.3 -8.5 -1.3 -2.2 -2.6 -3 -5.2 -3.2 -3.1 -0.3 -3.6 -0.7 -3.9 -3.1 -0.4 -3 -4 -9.3 -8.4 -14.5 -1.4 -1.7 -5.2 -4.2 -8.4 -5.6 -3.3 -1.3 -9.8 -4.5 -14.6 -7 -4.8 -2.5 -9.1 -4.6 -9.7 -4.6 -1.7 0 -5.9 5.1 -6.4 7.9 -0.4 1.7 -1.8 3.3 -4.1 4.5 -2 1.1 -3.6 2.3 -3.6 2.8 0 0.4 -1 0.8 -2.1 0.8 -1.9 0 -2.1 -0.4 -1.4 -3.2 0.3 -1.8 1.4 -7 2.3 -11.6 1 -4.6 2 -8.1 2.3 -7.8 0.3 0.3 0.4 -2.3 0.3 -5.7 -0.1 -3.4 0.1 -4.5 0.3 -2.4 0.2 2 0.8 3.7 1.3 3.7 1.2 0 3.6 -2.6 5.7 -6.1 2.5 -4.3 5.7 -4.7 11.7 -1.6 8.3 4.1 20.9 9.5 24.1 10.2 1.7 0.4 3.8 0.9 4.8 1.2 1.1 0.3 1.7 -0.1 1.7 -1.1 0 -1.5 0.3 -1.5 3.7 -0.1 2 0.8 5.8 3.5 8.4 6 2.6 2.4 6.2 5 8.1 5.8 1.9 0.8 4.4 2.8 5.5 4.3 3.5 5 9.2 16.2 8.6 16.8 -0.4 0.3 -0.2 0.6 0.4 0.6 0.5 0 1.5 -1 2.2 -2.2 2.5 -5 -0.1 2.6 -3.5 10 -2 4.3 -3.9 7.2 -4.8 7.2 -0.8 0 -2 0.9 -2.6 2 -0.9 1.6 -0.8 1.8 0.5 1.4 1.1 -0.5 1.3 -0.2 0.9 0.9 -0.3 1 -1.2 1.3 -2.2 0.9 -1.5 -0.5 -1.5 -0.4 -0.3 1.1 1.1 1.4 1.1 1.8 -0.3 2.3 -0.9 0.3 -1.3 1 -1 1.5 0.3 0.5 0 0.9 -0.6 0.9 -0.6 0 -0.9 0.4 -0.6 0.8 0.4 0.7 -2.5 5.8 -5.6 9.7 -4.7 5.9 -11.1 13.5 -11.4 13.5 -0.2 0 -0.4 -1.4 -0.4 -3.1z m7 -71.6 c0 -0.5 -1.1 -1.3 -2.4 -1.9 -2.3 -1.1 -2.4 -1 -1.3 0.7 1.2 1.9 3.7 2.6 3.7 1.2z"/>
  <path d="M248.3 252.8 c1.9 -4.6 3.7 -4.8 3.7 -0.4 0 3.2 -0.3 3.6 -2.5 3.6 -2.4 0 -2.5 -0.1 -1.2 -3.2z"/>
  <path d="M354.2 216.5 c0 -1.1 0.4 -3.1 0.8 -4.5 l0.8 -2.5 0 2.5 c0 1.4 -0.3 3.4 -0.8 4.5 l-0.9 2 0.1 -2z"/>
  <path d="M123 214.5 c0 -2.9 0.2 -3 4 -1 4 2.1 3.8 3.5 -0.5 3.5 -3.1 0 -3.5 -0.3 -3.5 -2.5z"/>
  <path d="M228 208.6 c0 -3.2 0.3 -3.6 2.5 -3.6 2.4 0 2.5 0.1 1.2 3.2 -1.9 4.6 -3.7 4.8 -3.7 0.4z"/>
  <path d="M113 204.4 c0 -3.9 0.9 -3.8 4 0.6 l2.1 3 -3 0 c-2.9 0 -3.1 -0.3 -3.1 -3.6z"/>
  <path d="M107.6 198.4 c-0.3 -0.9 -0.6 -2.4 -0.6 -3.5 0 -1 -0.4 -1.9 -1 -1.9 -0.5 0 -1 -1.6 -1 -3.5 0 -5.3 2.2 -4.3 4.8 2.3 1.3 3.1 2.5 6.3 2.9 7 0.3 0.8 -0.4 1.2 -2 1.2 -1.4 0 -2.8 -0.7 -3.1 -1.6z"/>
  <path d="M357.3 196.5 c0 -2.2 0.2 -3 0.4 -1.7 0.2 1.2 0.2 3 0 4 -0.3 0.9 -0.5 -0.1 -0.4 -2.3z"/>
  <path d="M103 180.5 c0 -4 2.4 -4.9 3.4 -1.2 1 3.7 0.7 4.7 -1.4 4.7 -1.6 0 -2 -0.7 -2 -3.5z"/>
  <path d="M178.6 180.6 c0.3 -0.8 1.7 -2.2 3 -3.1 2.4 -1.5 2.4 -1.5 2.4 1.5 0 2.7 -0.3 3 -3 3 -2.1 0 -2.8 -0.4 -2.4 -1.4z"/>
  <path fill="url(#lg0)" d="M217 170 c0 -2.2 2 -2.6 5.1 -1 3 1.6 2.3 3 -1.6 3 -2.8 0 -3.5 -0.4 -3.5 -2z"/>
  <path d="M103 158.5 c0 -2.8 0.4 -3.5 2 -3.5 2.1 0 2.4 1 1.4 4.8 -1 3.6 -3.4 2.7 -3.4 -1.3z"/>
  <path d="M109 133.5 c0 -1.9 0.5 -3.5 1 -3.5 0.6 0 1 -1.1 1 -2.5 0 -2 0.5 -2.5 2.5 -2.5 l2.5 0 -2.1 5.2 c-2.5 6.3 -2.8 6.8 -4 6.8 -0.5 0 -0.9 -1.6 -0.9 -3.5z"/>
  <path d="M116 118.1 c0 -4.2 1 -6.1 3.1 -6.1 1.4 0 1.9 -0.7 1.9 -3 0 -2.7 0.3 -3 3 -3 l3.1 0 -2.9 4.3 c-1.6 2.3 -3.7 5.7 -4.6 7.5 -2.1 4 -3.6 4.1 -3.6 0.3z"/>
  <path d="M131 96.6 c0 -3.3 0.2 -3.6 3.1 -3.6 l3 0 -2.1 3 c-3.1 4.4 -4 4.5 -4 0.6z"/>
  <path d="M316.4 71.8 l-2.9 -3.3 3.3 2.9 c1.7 1.7 3.2 3.1 3.2 3.3 0 0.8 -0.8 0.1 -3.6 -2.9z"/>
 </g>
 <g fill="#0a6bc7">
  <path d="M165.8 358.3 c-3.3 -0.8 -2 -3.3 1.7 -3.3 2.8 0 3.5 0.4 3.5 2 0 2 -1.4 2.3 -5.2 1.3z"/>
  <path d="M191 357 c0 -1.6 0.7 -2 3.5 -2 4 0 4.9 2.4 1.3 3.4 -3.8 1 -4.8 0.7 -4.8 -1.4z"/>
  <path d="M149.5 356.5 c-0.5 -0.2 -2.7 -0.6 -4.7 -1 -2.4 -0.4 -3.8 -1.1 -3.8 -2 0 -1.7 1.5 -1.8 8.4 -0.9 3.6 0.5 4.6 1.1 4.6 2.5 0 1.8 -1.8 2.3 -4.5 1.4z"/>
  <path d="M222 352 c0 -1.6 0.7 -2 3.5 -2 1.9 0 3.5 -0.4 3.5 -1 0 -0.5 1.6 -1 3.5 -1 5.7 0 4.3 2.5 -2.5 4.3 -7.6 2.1 -8 2.1 -8 -0.3z"/>
  <path d="M145 347.7 c0 -0.7 2.3 -2 5 -2.9 l5 -1.6 0 2.3 c0 1.5 -0.7 2.5 -2.2 2.9 -3.9 1 -7.8 0.7 -7.8 -0.7z"/>
  <path d="M255 340.6 c0 -1.5 0.9 -2.7 2.5 -3.4 2.9 -1.4 8.5 -1.6 8.5 -0.4 0 0.9 -4.5 3.7 -8.3 5.1 -2.4 1 -2.7 0.8 -2.7 -1.3z"/>
  <path d="M170 338.2 c0 -0.8 7.1 -5.2 8.4 -5.2 1.4 0 0.5 4.8 -1 5.4 -2.3 0.9 -7.4 0.7 -7.4 -0.2z"/>
  <path fill="url(#lg2)" d="M270 332.6 c0 -1.6 0.6 -2.6 1.5 -2.6 0.8 0 1.5 -0.4 1.5 -1 0 -0.5 0.7 -1 1.5 -1 0.8 0 1.5 -0.4 1.5 -1 0 -0.5 0.7 -1 1.5 -1 0.8 0 1.5 -0.4 1.5 -1 0 -0.5 0.7 -1 1.5 -1 0.8 0 1.5 -0.4 1.5 -1 0 -0.5 0.9 -1 2 -1 1.1 0 2 -0.7 2 -1.5 0 -0.8 0.6 -1.5 1.3 -1.5 0.7 0 2.1 -1.3 3 -3 1 -1.6 3.3 -4.1 5.1 -5.5 3.9 -2.9 5.3 -7.7 5.1 -16.7 -0.2 -6.4 -1.6 -8.8 -5.1 -8.8 -2.1 0 -2.4 -0.5 -2.4 -3.5 0 -2.5 -0.4 -3.5 -1.5 -3.5 -1.8 0 -3.5 -3.9 -3.5 -7.9 0 -2.2 -1.2 -3.7 -6.2 -7.4 -4.4 -3.3 -7.3 -4.7 -9.5 -4.7 -2.7 0 -3.3 -0.4 -3.3 -2.2 0 -1.7 -0.3 -1.9 -1.2 -1 -0.7 0.7 -1.9 1.2 -2.8 1.2 -0.8 0 -4.1 1.8 -7.4 4 -3.2 2.2 -6.7 4 -7.7 4 -1.3 0 -2.7 1.5 -4.1 4.5 -1.2 2.5 -2.8 4.5 -3.5 4.5 -0.7 0 -1.3 1.1 -1.3 2.5 0 1.6 -0.6 2.5 -1.5 2.5 -0.9 0 -1.5 0.9 -1.5 2.5 0 2 -0.5 2.5 -2.5 2.5 -1.4 0 -2.5 -0.3 -2.5 -0.6 0 -0.4 1.5 -3.2 3.4 -6.3 6.2 -10.2 11.9 -22.5 15.2 -32.6 1.8 -5.5 3.3 -9.5 3.4 -8.8 0 2.3 6.1 -2.1 6.7 -4.9 0.7 -3.7 6 -8.8 9 -8.8 1.4 0 6.8 2.3 12.1 5.1 5.3 2.8 12.3 6.2 15.6 7.5 5.9 2.6 8.9 5.4 13.7 12.9 1.5 2.3 4.3 5.5 6.3 7 2.1 1.6 4.8 4.7 6.1 6.9 1.9 3.5 2.2 4.8 1.6 8.8 -0.4 2.6 -1.2 5.3 -1.8 6 -0.6 0.7 -1.3 2.6 -1.7 4.2 -0.4 1.7 -1.6 4.1 -2.6 5.5 -2.1 3.1 -2.8 6.1 -1.7 7.9 0.5 0.7 0.2 1.4 -0.7 1.8 -0.9 0.3 -1.6 1.3 -1.6 2.2 0 2.6 -21.5 22.5 -32.4 30.1 -12.9 8.8 -13.6 9.1 -13.6 5.7z"/>
  <path d="M183 331.2 c0 -0.8 5.2 -4.2 6.4 -4.2 0.3 0 0.6 1.1 0.6 2.5 0 2.2 -0.4 2.5 -3.5 2.5 -1.9 0 -3.5 -0.4 -3.5 -0.8z"/>
  <path d="M195.5 323 c0.3 -0.5 1.9 -1.9 3.5 -3 l3 -2.1 0 3 c0 2.9 -0.3 3.1 -3.6 3.1 -2 0 -3.3 -0.4 -2.9 -1z"/>
  <path d="M218 302 c3.1 -4.4 4 -4.5 4 -0.6 0 3.3 -0.2 3.6 -3.1 3.6 l-3 0 2.1 -3z"/>
  <path d="M211 242.6 c0 -2.5 0.4 -3.6 1.5 -3.6 0.9 0 1.5 -0.9 1.5 -2.5 0 -2 0.5 -2.5 2.5 -2.5 1.4 0 2.5 0.3 2.5 0.6 0 1.1 -5.1 9.2 -6.5 10.4 -1.3 1.1 -1.5 0.7 -1.5 -2.4z"/>
  <path d="M225 216.6 c0 -3.2 0.3 -3.6 2.5 -3.6 2.4 0 2.5 0.1 1.2 3.2 -1.9 4.6 -3.7 4.8 -3.7 0.4z"/>
  <path d="M125 215.5 c0 -2.4 0.1 -2.5 3.2 -1.2 4.6 1.9 4.8 3.7 0.4 3.7 -3.2 0 -3.6 -0.3 -3.6 -2.5z"/>
  <path d="M115 119.6 c0 -3.2 0.3 -3.6 2.5 -3.6 2.4 0 2.5 0.1 1.2 3.2 -1.9 4.6 -3.7 4.8 -3.7 0.4z"/>
  <path d="M142.2 84.4 c0.3 -2.5 0.8 -2.9 3.7 -3.2 3.8 -0.4 3.5 0.6 -1 3.9 l-3.1 2.1 0.4 -2.8z"/>
  <path d="M308.9 63.3 l-3.4 -3.8 3.8 3.4 c2 1.9 3.7 3.6 3.7 3.8 0 0.8 -0.8 0 -4.1 -3.4z"/>
 </g>
 <g fill="#0a63c2">
  <path d="M166.8 358.3 c-3.6 -0.9 -2 -3.3 2.2 -3.3 3.3 0 4 0.3 4 2 0 2 -2 2.4 -6.2 1.3z"/>
  <path d="M190 357 c0 -1.6 0.7 -2 3.5 -2 4 0 4.9 2.4 1.3 3.4 -3.8 1 -4.8 0.7 -4.8 -1.4z"/>
  <path d="M148.1 356 c-5.7 -1 -10.6 -2.2 -11 -2.7 -0.3 -0.4 -1.9 -0.9 -3.6 -0.9 -1.6 -0.1 -4.6 -0.9 -6.5 -1.7 l-3.5 -1.5 5.1 -0.1 c2.8 -0.1 6.6 -0.4 8.3 -0.7 2.4 -0.5 3.1 -0.3 3.1 0.9 0 1.1 1.4 1.7 4.8 2.2 15.7 1.9 19.2 2.8 19.2 4.6 0 2.4 -2 2.4 -15.9 -0.1z"/>
  <path fill="url(#lg2)" d="M200 356.1 c0 -1.5 1 -2 6 -2.5 17.2 -2 51.8 -14.6 55.5 -20.2 3.3 -5 5.1 -19.7 2.8 -22.6 -0.6 -0.7 -2.1 -4.3 -3.4 -8.1 -2.1 -6 -2.8 -6.8 -5.9 -7.8 -1.9 -0.7 -4.6 -2 -5.9 -3 -3.2 -2.6 -5 -2.4 -11.8 1.2 -4.2 2.2 -7.1 4.7 -10.3 9.1 -5.9 7.8 -10.9 11.8 -14.9 11.8 -4.1 0 -4 -1.8 0.5 -6.1 8.5 -8.2 24.5 -31 31 -44.2 2.3 -4.6 3 -5.3 3.9 -4.1 0.9 1.3 1.9 0.9 7 -2.5 3.3 -2.3 6.8 -4.1 7.7 -4.1 0.9 0 2 -0.4 2.3 -1 0.8 -1.3 0.3 -1.3 -3.1 0 -2.4 0.9 -2.5 0.9 -1.4 -0.5 1.7 -2.1 8.2 -1.9 12.9 0.3 7.9 3.9 18.9 13.1 21.3 18 1.3 2.6 4.3 7.9 6.7 11.9 2.5 4.3 4.5 9 4.8 11.5 0.5 3.9 0.4 4.1 -0.9 2.4 -1.3 -1.6 -1.4 -1.5 -1 1.8 0.8 6.6 -1.5 13 -5.9 16.6 -2.2 1.8 -3.8 3.4 -3.5 3.7 0.3 0.3 -1.4 2 -3.7 3.8 -24.1 18.2 -52.1 30.5 -79.8 35 -11.6 1.9 -10.9 1.9 -10.9 -0.4z m93.9 -84 c-1.5 -0.5 -2.2 0.6 -1.4 1.9 0.6 0.9 1 0.9 1.6 -0.1 0.5 -0.8 0.4 -1.5 -0.2 -1.8z"/>
  <path d="M142 348.6 c0 -1.3 2.8 -2.6 5.8 -2.6 0.6 0 1.2 0.9 1.2 2 0 1.6 -0.7 2 -3.5 2 -2.3 0 -3.5 -0.5 -3.5 -1.4z"/>
  <path d="M151.2 345.8 c0.3 -0.7 1.9 -1.8 3.6 -2.5 3.1 -1.3 3.2 -1.2 3.2 1.2 0 2.2 -0.4 2.5 -3.6 2.5 -2.3 0 -3.4 -0.4 -3.2 -1.2z"/>
  <path d="M159 343.9 c0 -1.5 1.3 -2.6 5.3 -4.2 2.8 -1.2 7.6 -3.4 10.6 -4.9 2.9 -1.5 5.5 -2.8 5.7 -2.8 0.2 0 0.4 1.1 0.4 2.5 0 2.1 -0.5 2.5 -3 2.5 -2.5 0 -3 0.4 -3 2.4 0 1.9 -1 2.8 -4.9 4.5 -6.6 2.8 -11.1 2.8 -11.1 0z"/>
  <path d="M188 328.3 c0 -0.5 1.6 -1.8 3.5 -3.1 l3.5 -2.2 0 3 c0 2.8 -0.3 3 -3.5 3 -1.9 0 -3.5 -0.3 -3.5 -0.7z"/>
  <path d="M199.5 320 c0.3 -0.5 1.9 -1.9 3.5 -3 l3 -2.1 0 3 c0 2.9 -0.3 3.1 -3.6 3.1 -2 0 -3.3 -0.4 -2.9 -1z"/>
  <path d="M217 232.5 c0 -3.1 0.3 -3.5 2.5 -3.5 3 0 3 0.3 0.8 4.1 -2.3 3.8 -3.3 3.7 -3.3 -0.6z"/>
  <path d="M229 205.6 c0 -3.2 0.3 -3.6 2.5 -3.6 2.4 0 2.5 0.1 1.2 3.2 -1.9 4.6 -3.7 4.8 -3.7 0.4z"/>
  <path d="M106 193 c0 -1.6 -0.4 -3 -1 -3 -0.5 0 -1 -1.6 -1 -3.5 0 -5.6 2.3 -4.1 4.6 3 l2.2 6.5 -2.4 0 c-2 0 -2.4 -0.5 -2.4 -3z"/>
  <path d="M233 192.5 c0 -2.8 0.4 -3.5 2 -3.5 2.1 0 2.4 1 1.4 4.8 -1 3.6 -3.4 2.7 -3.4 -1.3z"/>
  <path d="M110 130.6 c0 -2.5 0.4 -3.6 1.5 -3.6 1 0 1.5 -1 1.5 -3.2 0 -4.3 1.2 -6.1 3.8 -5.6 2 0.3 2 0.5 -1.2 7.7 -3.7 8.5 -5.6 10.1 -5.6 4.7z"/>
  <path d="M119 112.6 c0 -2.9 0.4 -3.6 2 -3.6 1.6 0 2 -0.7 2 -3 0 -2.7 0.3 -3 3 -3 l3 0 -4.1 6 c-5.1 7.5 -5.9 8 -5.9 3.6z"/>
  <path d="M130 97.8 c0 -3.6 0.2 -3.8 3 -3.8 2.8 0 3 -0.3 3 -3.5 0 -3.2 0.2 -3.5 3.1 -3.5 l3 0 -2 2.8 c-1.1 1.5 -3.9 4.7 -6 7.2 l-4 4.5 -0.1 -3.7z"/>
 </g>
 <g fill="#0a55b3">
  <path fill="url(#lg2)" d="M164.5 358 c-3.3 -0.5 -7.3 -1.1 -9 -1.5 -1.6 -0.3 -5.2 -0.8 -8 -1.1 -5.8 -0.5 -14.8 -2.7 -19.6 -4.7 l-3.4 -1.4 5.3 -0.1 c15.8 -0.4 48 -13.6 67.1 -27.4 7.8 -5.7 19.2 -16.9 26.3 -26 3.3 -4.3 6.3 -7.8 6.5 -7.8 0.7 0 -3.6 5.7 -11.6 15.5 -5.9 7.1 -6.2 7.7 -2.6 4.8 2.2 -1.7 6 -5.8 8.5 -9.1 7.8 -10.4 21.5 -15.5 28.1 -10.3 1.3 1 4 2.3 5.9 3 3.1 1 3.8 1.8 5.9 7.8 1.3 3.8 2.8 7.4 3.4 8 1.5 2 2.1 13.9 0.9 17 -0.6 1.5 -1.2 4.3 -1.4 6.2 -0.2 1.9 -1.2 4.5 -2.3 5.6 -5.7 6.3 -33.8 16.5 -54.6 20 -11.2 1.9 -37 2.7 -45.4 1.5z m3.5 -17.5 c1.4 -0.8 2.1 -1.4 1.5 -1.4 -0.5 0 -2.1 0.6 -3.5 1.4 -1.4 0.8 -2 1.4 -1.5 1.4 0.6 0 2.1 -0.6 3.5 -1.4z"/>
  <path d="M163.8 269.3 c-3.3 -0.8 -2 -3.3 1.7 -3.3 2.8 0 3.5 0.4 3.5 2 0 2 -1.4 2.3 -5.2 1.3z"/>
  <path d="M174 268 c0 -1.6 0.7 -2 3.5 -2 4 0 4.9 2.4 1.3 3.4 -3.8 1 -4.8 0.7 -4.8 -1.4z"/>
  <path d="M193 262 c0 -1.6 0.7 -2 3.7 -2 3.5 0 3.6 0 1.8 2 -1 1.1 -2.6 2 -3.7 2 -1.1 0 -1.8 -0.7 -1.8 -2z"/>
  <path d="M201 255.5 c0 -2.4 0.5 -3.5 1.5 -3.5 0.8 0 1.5 -0.9 1.5 -2 0 -1.3 0.7 -2 2 -2 1.5 0 2 -0.7 2 -2.5 0 -1.8 0.5 -2.5 2 -2.5 1.6 0 2 -0.7 2 -3 0 -2 0.5 -3 1.5 -3 0.9 0 1.5 -0.9 1.5 -2.5 0 -1.6 0.6 -2.5 1.5 -2.5 0.8 0 1.5 -0.9 1.5 -2 0 -2.3 5.8 -14.3 7.1 -14.8 0.5 -0.2 0.9 -1.5 0.9 -2.8 0 -1.9 0.5 -2.4 2.5 -2.4 l2.5 0 -2 5 c-2.8 7.1 -6.5 14.3 -12 23 -4.4 7.2 -14.7 21 -15.6 21 -0.2 0 -0.4 -1.6 -0.4 -3.5z"/>
  <path d="M230 203.5 c0 -1.4 0.5 -4.5 1.2 -7 0.9 -3.3 1.7 -4.5 3.1 -4.5 1.7 0 1.8 0.5 1.2 3.8 -1.5 8.1 -5.5 13.7 -5.5 7.7z"/>
  <path d="M109 198.5 c0 -4.3 1 -4.4 3.3 -0.6 2.2 3.8 2.2 4.1 -0.8 4.1 -2.2 0 -2.5 -0.4 -2.5 -3.5z"/>
  <path d="M234 187.5 c0 -2.8 0.4 -3.5 2 -3.5 2.1 0 2.4 1 1.4 4.8 -1 3.6 -3.4 2.7 -3.4 -1.3z"/>
  <path d="M102 169.5 c0 -5.8 0.2 -6.5 2 -6.5 1.8 0 2 0.7 2 6.5 0 5.8 -0.2 6.5 -2 6.5 -1.8 0 -2 -0.7 -2 -6.5z"/>
  <path d="M223 172.5 c0 -3.1 1.1 -3.2 4.7 0 l2.8 2.4 -3.7 0.1 c-3.4 0 -3.8 -0.3 -3.8 -2.5z"/>
  <path d="M103 158.2 c0 -8.2 5.5 -29.2 7.6 -29.2 0.9 0 1.4 -1.2 1.4 -3.5 0 -3.1 0.3 -3.5 2.5 -3.5 l2.5 0 -1.6 3.8 c-3.5 8.1 -6.5 18.1 -7.9 26.1 -0.8 4.6 -1.5 8.5 -1.5 8.7 0 0.2 -0.7 0.4 -1.5 0.4 -1 0 -1.5 -1 -1.5 -2.8z"/>
  <path d="M117 108 c3.1 -4.4 4 -4.5 4 -0.6 0 3.3 -0.2 3.6 -3.1 3.6 l-3 0 2.1 -3z"/>
  <path d="M126.1 102.8 c-0.1 -2.7 0.3 -3.8 1.4 -3.8 0.8 0 1.5 -0.9 1.5 -2 0 -1.5 0.7 -2 2.5 -2 2.1 0 2.5 -0.5 2.5 -3 0 -3.3 1.5 -4.4 5 -3.8 2 0.3 1.8 0.7 -2.2 5.4 -2.4 2.8 -5.7 6.8 -7.5 9 l-3.2 3.9 0 -3.7z"/>
  <path d="M143.2 83.4 c0.2 -2.1 0.9 -3 2.6 -3.2 1.2 -0.2 2.2 -0.7 2.2 -1.2 0 -1.2 7.6 -5.6 13 -7.5 2.4 -0.8 4.2 -1.4 3.9 -1.1 -0.2 0.2 -3.8 2.7 -7.9 5.5 -4.1 2.8 -9 6.3 -10.8 7.8 l-3.4 2.7 0.4 -3z"/>
 </g>
 <g fill="#282424">
  <path d="M194 261.7 c0 -2.3 5.8 -8.7 7.9 -8.7 0.6 0 1.1 -0.9 1.1 -2 0 -1.1 0.7 -2 1.5 -2 0.9 0 1.5 -0.9 1.5 -2.1 0 -1.2 0.8 -2.3 2 -2.6 1.1 -0.3 2 -1.4 2 -2.4 0 -1.1 0.7 -1.9 1.5 -1.9 0.9 0 1.5 -0.9 1.5 -2.5 0 -1.6 0.6 -2.5 1.5 -2.5 0.9 0 1.5 -0.9 1.5 -2.5 0 -2 0.5 -2.5 2.5 -2.5 1.4 0 2.5 0.3 2.5 0.6 0 2.9 -17.9 27.6 -22.7 31.4 -3.3 2.6 -4.3 2.5 -4.3 -0.3z"/>
  <path fill="url(#lg0)" d="M131.5 220.6 c-9.7 -3.1 -19.6 -11.2 -21.1 -17.3 -0.4 -1.3 -1 -2.3 -1.4 -2.3 -1.9 0 -5.3 -11 -6.4 -20.9 -1.1 -9.3 -1.4 -10.1 -2 -6.8 -0.8 3.4 -1.1 3.7 -4.1 3.7 -3.2 0 -3.3 -0.2 -4 -4.9 -0.9 -6.9 0.1 -12.8 4.6 -26.3 7 -21.1 19.5 -40.2 37.1 -56.4 9 -8.3 20.9 -16.3 26.8 -17.9 2.2 -0.6 2.1 -0.4 -0.8 1.7 -16 11.2 -25.3 20.6 -36.1 36.8 -18.2 27.3 -23.8 63.9 -13 85.8 8.9 18.1 26.4 26.3 42.5 20 8.2 -3.3 12.5 -7.8 16.3 -17.3 5.7 -14.3 6.3 -15.4 11 -20.1 2.5 -2.6 7.5 -6 11.1 -7.8 5.9 -2.8 7.4 -3.1 16.5 -3.1 11.7 0 16.1 1.7 24.6 9.3 5.1 4.5 5.1 4.6 4.5 9.2 -0.3 2.6 -2 9 -3.6 14.3 -5.5 17.4 -9 23.4 -9 15.2 0 -1.9 0.5 -3.5 1 -3.5 0.6 0 1 -0.8 1 -1.8 0 -2.2 4.1 -14.5 5 -15.2 0.4 -0.3 1 -2.8 1.4 -5.6 l0.6 -5.2 -4.7 -4.2 c-6.5 -5.8 -13.6 -9 -19.9 -9 -6.3 0 -13.4 2.1 -18.5 5.4 -2.1 1.4 -4.8 2.6 -5.9 2.6 -1.3 0 -2 0.7 -2 1.8 0 1 -1.1 3.3 -2.4 5.1 -1.3 1.7 -3.9 7.3 -5.7 12.4 -3.1 8.9 -7 15.7 -9 15.7 -0.5 0 -1.8 0.9 -2.8 1.9 -4.9 4.9 -22.6 7.5 -31.6 4.7z"/>
 </g>
 <g fill="#1b1316">
  <path fill="url(#lg0)" d="M161.1 269 c-13.6 -2 -33 -12.6 -42.6 -23.3 -11.7 -13 -19.1 -26.2 -23.2 -41.3 -2.4 -8.9 -2.7 -11.7 -2.7 -27.9 l-0.1 -18 4.3 -12.5 c4.6 -13.2 6.1 -16.5 6.9 -15.7 0.2 0.3 -0.9 4.5 -2.6 9.4 -1.6 4.8 -3.2 9.9 -3.5 11.3 -0.3 1.4 -1 4.1 -1.5 6 -1.3 4.3 -1.3 4.3 -0.1 3.5 0.5 -0.3 1 -0.2 1 0.4 0 0.5 -0.6 1.2 -1.2 1.4 -1 0.4 -1 0.6 0 0.6 1.3 0.1 1.7 5.1 0.4 5.1 -0.5 0 -0.6 1.5 -0.4 3.3 0.5 3.1 0.6 3.1 1.8 -1.7 0.7 -2.8 1.1 -5.3 0.8 -5.7 -0.2 -0.4 -0.1 -1.5 0.2 -2.4 0.6 -1.4 0.9 -1.2 2.4 1 l1.7 2.6 1.1 -2.8 c0.6 -1.5 1.3 -3.7 1.5 -4.8 0.3 -1.1 0.2 1.4 0 5.5 -0.9 12.5 1.1 24.3 5.4 32.9 5.1 10.1 10.8 16.1 18.5 19.7 11.8 5.3 26 2.9 35 -5.9 3.5 -3.5 4.9 -6.1 7.7 -14 2.1 -6.3 4.7 -11.5 7.1 -14.5 9.7 -12.2 29.6 -17.2 43.3 -10.9 2.9 1.3 7.4 4.4 10.1 6.9 4.5 4.1 4.9 4.8 4.8 8.6 -0.1 2.4 -2 9.7 -4.2 16.5 -6.2 19.2 -14.5 34.9 -25.8 49.1 -7.4 9.2 -10.3 11.6 -17.6 14.4 -10.9 4.2 -16.9 4.9 -28.5 3.2z"/>
  <path d="M138.8 85.3 c5.4 -5.1 17.3 -12.5 22.2 -13.8 1.4 -0.4 -0.6 1.2 -4.5 3.5 -3.8 2.3 -7.1 4.6 -7.3 5.1 -0.2 0.5 -0.9 0.9 -1.7 0.9 -0.7 0 -1.8 0.7 -2.5 1.5 -0.7 0.8 -1.6 1.2 -2.1 0.9 -0.5 -0.3 -0.9 0 -0.9 0.6 0 0.6 -1.2 1.5 -2.6 2 -1.6 0.6 -2.3 1.4 -1.8 2.2 0.4 0.7 0.3 1 -0.1 0.5 -0.5 -0.4 -1.6 -0.1 -2.5 0.5 -0.9 0.7 0.8 -1 3.8 -3.9z"/>
 </g>
</svg>